<?xml version="1.0" encoding="UTF-8" standalone="no"?>
<!DOCTYPE svg PUBLIC "-//W3C//DTD SVG 1.1//EN" "http://www.w3.org/Graphics/SVG/1.1/DTD/svg11.dtd">
<svg version="1.1" xmlns="http://www.w3.org/2000/svg" xmlns:xlink="http://www.w3.org/1999/xlink" preserveAspectRatio="xMidYMid meet" viewBox="0 0 336 280" width="336" height="280"><defs><path d="M195.81 14.32L201.09 15.44L206.28 16.75L211.39 18.26L216.42 19.93L221.35 21.8L226.19 23.83L230.92 26.04L235.55 28.41L240.07 30.94L244.47 33.63L248.75 36.48L252.92 39.47L256.95 42.61L260.85 45.89L264.62 49.3L268.24 52.85L271.72 56.53L275.05 60.33L278.22 64.25L281.24 68.29L284.1 72.44L286.78 76.7L289.3 81.06L291.64 85.52L293.8 90.09L295.77 94.73L297.56 99.47L299.15 104.29L300.54 109.18L301.73 114.16L302.72 119.2L303.49 124.31L304.05 129.48L304.38 134.72L304.5 140L304.38 145.28L304.05 150.52L303.49 155.69L302.72 160.8L301.73 165.84L300.54 170.82L299.15 175.71L297.56 180.53L295.77 185.27L293.8 189.91L291.64 194.48L289.3 198.94L286.78 203.3L284.1 207.56L281.24 211.71L278.22 215.75L275.05 219.67L271.72 223.47L268.24 227.15L264.62 230.7L260.85 234.11L256.95 237.39L252.92 240.53L251.68 241.42L251.67 241.37L251.66 241.28L251.66 241.19L251.64 241.09L251.63 241L251.63 240.91L251.61 240.82L251.61 240.72L251.59 240.63L251.58 240.54L251.58 240.45L251.56 240.35L251.56 240.26L251.54 240.18L251.53 240.09L251.53 240L251.52 239.91L251.51 239.82L251.5 239.74L251.49 239.65L251.48 239.57L251.47 239.48L251.46 239.4L251.45 239.33L251.45 239.25L251.44 239.18L251.43 239.09L251.42 239L251.4 238.92L251.4 238.83L251.39 238.75L251.38 238.66L251.38 238.57L251.37 238.49L251.37 238.41L251.36 238.33L251.36 238.25L251.36 238.17L251.36 238.1L251.36 238.02L251.36 237.94L251.36 237.86L251.36 237.79L251.37 237.72L251.37 237.64L251.38 237.58L251.38 237.51L251.39 237.43L251.4 237.36L251.4 237.3L251.42 237.23L251.43 237.16L251.43 237.1L251.45 237.04L251.46 236.98L251.47 236.92L251.48 236.86L251.5 236.8L251.52 236.74L251.53 236.69L251.55 236.63L251.56 236.58L251.58 236.53L251.6 236.47L251.62 236.43L251.64 236.38L251.66 236.33L251.69 236.28L251.73 236.22L251.77 236.16L251.82 236.09L251.88 236.02L251.94 235.93L252.02 235.84L252.1 235.76L252.18 235.66L252.27 235.56L252.37 235.45L252.47 235.34L252.58 235.23L252.69 235.11L252.82 234.98L252.94 234.86L253.08 234.73L253.21 234.59L253.35 234.46L253.49 234.31L253.64 234.17L253.8 234.02L253.96 233.87L254.12 233.72L254.29 233.56L254.46 233.4L254.64 233.24L254.81 233.07L255 232.91L255.18 232.74L255.37 232.57L255.56 232.4L255.75 232.22L255.95 232.05L256.15 231.88L256.35 231.7L256.55 231.53L256.76 231.35L256.96 231.17L258.51 229.82L260.02 228.43L261.52 227.03L262.98 225.59L264.42 224.14L265.85 222.65L267.25 221.15L268.62 219.61L269.96 218.05L271.28 216.48L272.57 214.88L273.84 213.26L275.08 211.62L276.29 209.95L277.47 208.27L278.63 206.57L279.76 204.86L280.86 203.12L281.92 201.37L282.97 199.59L283.98 197.81L284.96 196.01L285.91 194.2L286.83 192.37L287.71 190.53L288.57 188.67L289.4 186.81L290.18 184.93L290.95 183.04L291.67 181.14L292.37 179.23L293.02 177.32L293.65 175.39L294.24 173.46L294.79 171.51L295.31 169.57L295.79 167.62L296.25 165.66L296.66 163.7L297.03 161.73L297.3 160.18L297.54 158.62L297.77 157.06L297.97 155.48L298.15 153.88L298.31 152.29L298.44 150.68L298.55 149.07L298.65 147.45L298.72 145.83L298.76 144.19L298.79 142.57L298.8 140.93L298.78 139.29L298.74 137.65L298.68 136.01L298.6 134.38L298.5 132.73L298.38 131.1L298.23 129.46L298.08 127.83L297.89 126.21L297.69 124.58L297.46 122.97L297.21 121.36L296.95 119.76L296.66 118.17L296.35 116.58L296.02 115.01L295.68 113.44L295.31 111.89L294.92 110.35L294.51 108.82L294.09 107.31L293.63 105.8L293.17 104.32L292.68 102.85L292.17 101.4L291.65 99.97L291.11 98.55L290.57 97.24L290.04 95.94L289.49 94.66L288.94 93.38L288.37 92.13L287.79 90.88L287.2 89.64L286.6 88.42L285.99 87.2L285.37 86L284.74 84.8L284.09 83.62L283.44 82.45L282.77 81.29L282.09 80.14L281.4 79L280.69 77.86L279.98 76.74L279.25 75.62L278.51 74.51L277.75 73.41L276.98 72.32L276.2 71.24L275.41 70.16L274.6 69.09L273.77 68.03L272.94 66.97L272.09 65.92L271.22 64.88L270.34 63.84L269.44 62.81L268.53 61.78L267.61 60.76L266.66 59.74L265.71 58.74L264.73 57.72L263.75 56.72L262.75 55.73L261.72 54.73L260.69 53.73L259.6 52.72L258.51 51.71L257.42 50.72L256.32 49.75L255.21 48.79L254.09 47.85L252.97 46.93L251.84 46.01L250.71 45.11L249.57 44.23L248.42 43.37L247.26 42.51L246.1 41.68L244.92 40.85L243.74 40.04L242.55 39.25L241.36 38.47L240.16 37.71L238.95 36.96L237.73 36.22L236.5 35.5L235.26 34.79L234.01 34.09L232.76 33.41L231.5 32.75L230.23 32.09L228.94 31.46L227.65 30.83L226.35 30.22L225.04 29.62L223.72 29.03L222.39 28.46L221.05 27.9L219.7 27.35L218.34 26.82L216.97 26.3L215.59 25.8L214.2 25.3L212.79 24.82L211.37 24.35L210.67 24.12L209.95 23.9L209.23 23.68L208.5 23.46L207.76 23.24L207.02 23.03L206.27 22.82L205.51 22.6L204.75 22.4L203.98 22.2L203.21 21.99L202.44 21.8L201.66 21.61L200.88 21.42L200.1 21.23L199.32 21.06L198.53 20.88L197.75 20.71L196.96 20.54L196.18 20.38L195.4 20.22L194.61 20.06L193.84 19.91L193.06 19.77L192.29 19.63L191.52 19.49L190.75 19.36L190 19.24L189.24 19.12L188.49 19L187.75 18.89L187.02 18.79L186.29 18.7L185.57 18.61L184.86 18.52L184.16 18.44L183.47 18.37L182.79 18.3L182.12 18.24L181.46 18.19L180.54 18.12L179.63 18.05L178.72 18L177.83 17.94L176.94 17.9L176.05 17.85L175.16 17.81L174.29 17.78L173.41 17.75L172.55 17.72L171.69 17.71L170.83 17.7L169.97 17.68L169.12 17.68L168.27 17.68L167.43 17.69L166.59 17.7L165.74 17.72L164.91 17.75L164.07 17.77L163.24 17.81L162.4 17.84L161.58 17.89L160.74 17.94L159.91 17.99L159.08 18.05L158.25 18.11L157.41 18.18L156.58 18.26L155.75 18.33L154.91 18.42L154.08 18.51L153.24 18.61L152.39 18.71L151.55 18.82L150.71 18.93L149.86 19.05L149.01 19.17L148.15 19.3L147.29 19.43L145.27 19.76L143.27 20.12L141.27 20.51L139.29 20.92L137.34 21.36L135.38 21.82L133.44 22.32L131.52 22.84L129.61 23.38L127.71 23.96L125.83 24.55L123.96 25.18L122.1 25.83L120.27 26.51L118.44 27.21L116.62 27.94L114.83 28.7L113.05 29.48L111.27 30.29L109.52 31.13L107.78 31.98L106.05 32.87L104.35 33.79L102.65 34.73L100.97 35.69L99.3 36.68L97.65 37.7L96.01 38.74L94.39 39.81L92.79 40.91L91.2 42.03L89.62 43.17L88.06 44.34L86.52 45.54L84.99 46.76L83.48 48.01L81.98 49.28L80.5 50.58L79.03 51.91L77.58 53.26L76.75 54.04L75.94 54.82L75.14 55.6L74.36 56.38L73.6 57.14L72.84 57.91L72.1 58.67L71.37 59.43L70.66 60.2L69.95 60.96L69.26 61.72L68.58 62.48L67.91 63.24L67.25 64L66.6 64.76L65.97 65.53L65.34 66.3L64.72 67.07L64.1 67.84L63.51 68.62L62.91 69.41L62.33 70.2L61.74 70.99L61.17 71.79L60.61 72.6L60.04 73.41L59.49 74.23L58.94 75.07L58.39 75.9L57.85 76.75L57.32 77.61L56.79 78.48L56.26 79.36L55.73 80.25L55.21 81.15L54.69 82.06L54.17 82.98L53.66 83.93L53.14 84.88L52.62 85.84L52.06 86.93L51.5 88.03L50.96 89.12L50.42 90.22L49.9 91.32L49.4 92.42L48.9 93.53L48.42 94.64L47.95 95.75L47.49 96.87L47.05 97.99L46.61 99.11L46.18 100.23L45.77 101.36L45.37 102.5L44.99 103.63L44.6 104.77L44.24 105.91L43.89 107.06L43.55 108.2L43.22 109.35L42.9 110.51L42.59 111.67L42.31 112.83L42.03 114L41.75 115.16L41.49 116.34L41.25 117.51L41.02 118.69L40.79 119.87L40.59 121.05L40.38 122.24L40.2 123.44L40.02 124.63L39.86 125.83L39.71 127.03L39.57 128.24L39.44 129.45L39.33 130.66L39.22 131.87L39.19 132.33L39.16 132.81L39.13 133.3L39.1 133.81L39.08 134.33L39.06 134.88L39.04 135.43L39.02 136L39.01 136.58L39 137.17L38.99 137.77L38.99 138.38L38.98 138.99L38.98 139.62L38.98 140.25L38.99 140.88L38.99 141.52L39 142.16L39.02 142.8L39.02 143.44L39.04 144.09L39.06 144.73L39.08 145.37L39.1 146.01L39.12 146.65L39.15 147.28L39.18 147.9L39.22 148.52L39.25 149.13L39.28 149.73L39.32 150.32L39.36 150.91L39.4 151.47L39.45 152.04L39.5 152.58L39.54 153.11L39.59 153.62L39.65 154.12L39.7 154.6L39.76 155.06L40.02 157L40.31 158.93L40.64 160.86L41 162.79L41.4 164.72L41.82 166.64L42.28 168.55L42.78 170.46L43.31 172.37L43.87 174.27L44.46 176.15L45.09 178.04L45.74 179.9L46.43 181.76L47.14 183.62L47.89 185.46L48.67 187.29L49.47 189.11L50.31 190.91L51.17 192.7L52.06 194.48L52.99 196.24L53.93 197.99L54.91 199.72L55.92 201.44L56.95 203.13L58.01 204.82L59.09 206.47L60.2 208.11L61.34 209.73L62.5 211.34L63.69 212.92L64.9 214.48L66.14 216.01L67.4 217.53L68.69 219.01L70 220.48L71.33 221.92L72.68 223.34L74.06 224.72L74.22 224.88L74.37 225.03L74.51 225.17L74.66 225.32L74.81 225.47L74.95 225.62L75.09 225.76L75.23 225.9L75.37 226.04L75.5 226.18L75.63 226.31L75.76 226.44L75.89 226.57L76.02 226.7L76.14 226.83L76.25 226.95L76.37 227.07L76.48 227.19L76.58 227.3L76.69 227.41L76.79 227.52L76.88 227.62L76.97 227.72L77.06 227.81L77.14 227.9L77.22 227.99L77.29 228.07L77.36 228.15L77.43 228.22L77.49 228.29L77.54 228.35L77.59 228.41L77.64 228.47L77.67 228.52L77.7 228.56L77.73 228.6L77.75 228.63L77.77 228.65L77.77 228.67L77.78 228.69L77.78 228.71L77.78 228.73L77.77 228.75L77.77 228.78L77.77 228.81L77.77 228.84L77.76 228.88L77.75 228.92L77.74 228.97L77.74 229.01L77.73 229.06L77.72 229.11L77.71 229.17L77.7 229.23L77.69 229.29L77.68 229.35L77.67 229.42L77.65 229.49L77.64 229.56L77.62 229.63L77.61 229.71L77.59 229.78L77.58 229.86L77.56 229.94L77.54 230.02L77.53 230.11L77.51 230.19L77.49 230.28L77.47 230.37L77.46 230.46L77.43 230.56L77.41 230.64L77.4 230.74L77.38 230.84L77.36 230.93L77.33 231.03L77.31 231.12L77.29 231.23L77.27 231.32L77.25 231.42L77.23 231.53L77.2 231.62L77.18 231.73L77.17 231.82L77.15 231.92L77.12 232.02L77.11 232.12L77.1 232.22L77.07 232.31L77.06 232.41L77.04 232.51L77.02 232.59L77.01 232.69L77 232.78L76.98 232.87L76.97 232.96L76.95 233.05L76.94 233.13L76.93 233.22L76.92 233.3L76.91 233.38L76.89 233.46L76.89 233.53L76.88 233.61L76.87 233.68L76.86 233.74L76.85 233.81L76.85 233.87L76.84 233.94L76.84 234L76.84 234.05L76.83 234.11L76.83 234.15L76.83 234.2L76.83 234.24L76.83 234.28L76.83 234.32L76.84 234.35L76.84 234.39L76.84 234.41L76.86 234.44L76.87 234.44L76.9 234.42L76.94 234.37L76.98 234.3L77.02 234.21L77.08 234.09L77.15 233.94L77.21 233.77L77.29 233.57L77.37 233.35L77.46 233.11L77.55 232.84L77.65 232.55L77.76 232.22L77.87 231.88L78 231.52L78.13 231.13L78.26 230.72L78.39 230.28L78.54 229.82L78.69 229.34L78.85 228.84L79.01 228.31L79.18 227.76L79.36 227.19L79.54 226.59L79.73 225.97L79.93 225.33L80.13 224.66L80.33 223.98L80.55 223.28L80.76 222.54L80.98 221.8L81.21 221.02L81.45 220.23L81.68 219.42L81.93 218.58L82.18 217.72L82.44 216.84L82.76 215.76L83.07 214.71L83.37 213.68L83.66 212.68L83.96 211.71L84.24 210.75L84.51 209.84L84.79 208.94L85.05 208.07L85.3 207.22L85.55 206.41L85.79 205.62L86.03 204.85L86.25 204.11L86.47 203.4L86.68 202.71L86.89 202.06L87.08 201.42L87.28 200.81L87.46 200.24L87.64 199.68L87.81 199.15L87.97 198.65L88.13 198.17L88.28 197.73L88.42 197.3L88.55 196.91L88.68 196.54L88.81 196.19L88.92 195.87L89.03 195.58L89.12 195.31L89.22 195.07L89.3 194.86L89.38 194.68L89.45 194.51L89.52 194.38L89.58 194.27L89.63 194.19L89.67 194.13L89.7 194.11L89.73 194.08L89.76 194.05L89.79 194.03L89.84 194L89.87 193.97L89.91 193.94L89.96 193.91L90.01 193.88L90.05 193.85L90.11 193.82L90.16 193.79L90.22 193.77L90.27 193.73L90.33 193.7L90.39 193.67L90.45 193.64L90.52 193.61L90.58 193.58L90.65 193.55L90.71 193.53L90.79 193.49L90.86 193.46L90.92 193.44L91 193.4L91.07 193.38L91.15 193.35L91.22 193.32L91.3 193.29L91.37 193.27L91.45 193.24L91.53 193.21L91.61 193.18L91.68 193.16L91.76 193.14L91.84 193.11L91.92 193.09L92 193.07L92.07 193.04L92.15 193.02L92.23 193L92.33 192.97L92.44 192.94L92.55 192.9L92.68 192.87L92.82 192.83L92.96 192.79L93.11 192.74L93.28 192.69L93.45 192.64L93.63 192.58L93.82 192.53L94.02 192.47L94.23 192.4L94.44 192.34L94.66 192.27L94.88 192.2L95.11 192.12L95.35 192.05L95.6 191.98L95.85 191.9L96.1 191.82L96.36 191.74L96.63 191.66L96.89 191.57L97.17 191.49L97.44 191.4L97.72 191.31L98 191.22L98.29 191.13L98.58 191.04L98.87 190.95L99.16 190.86L99.45 190.76L99.74 190.67L100.04 190.58L100.34 190.48L100.64 190.39L100.93 190.29L101.23 190.19L101.53 190.1L101.83 190L102.13 189.9L102.44 189.8L102.74 189.69L103.05 189.6L103.36 189.5L103.67 189.39L103.98 189.29L104.29 189.19L104.6 189.09L104.9 188.99L105.21 188.89L105.51 188.79L105.82 188.7L106.12 188.6L106.42 188.5L106.72 188.41L107.01 188.31L107.3 188.22L107.58 188.12L107.86 188.03L108.14 187.94L108.41 187.85L108.67 187.77L108.93 187.69L109.19 187.61L109.44 187.53L109.68 187.44L109.91 187.37L110.14 187.3L110.36 187.22L110.57 187.16L110.77 187.09L110.96 187.03L111.14 186.97L111.32 186.92L111.48 186.86L111.64 186.81L111.79 186.77L115.13 185.71L115.23 184L115.24 183.84L115.25 183.7L115.25 183.56L115.26 183.42L115.26 183.29L115.25 183.17L115.24 183.04L115.23 182.93L115.22 182.81L115.2 182.7L115.18 182.6L115.16 182.5L115.13 182.4L115.1 182.3L115.06 182.21L115.02 182.12L114.98 182.04L114.92 181.96L114.87 181.87L114.82 181.8L114.75 181.72L114.68 181.65L114.61 181.57L114.53 181.5L114.44 181.44L114.35 181.37L114.25 181.3L114.15 181.24L114.04 181.18L113.92 181.11L113.8 181.05L113.67 180.98L113.53 180.92L113.39 180.86L113.25 180.79L113.09 180.73L112.92 180.67L112.75 180.61L112.57 180.54L112.38 180.47L112.04 180.35L111.7 180.22L111.37 180.09L111.03 179.96L110.7 179.82L110.37 179.68L110.05 179.54L109.73 179.4L109.41 179.25L109.1 179.1L108.79 178.94L108.48 178.78L108.18 178.62L107.88 178.46L107.59 178.3L107.29 178.12L107.01 177.95L106.72 177.78L106.44 177.6L106.17 177.43L105.9 177.24L105.64 177.06L105.37 176.87L105.12 176.69L104.86 176.5L104.61 176.3L104.37 176.11L104.13 175.91L103.9 175.72L103.67 175.52L103.45 175.31L103.23 175.11L103.01 174.9L102.8 174.7L102.6 174.49L102.4 174.28L102.21 174.07L102.02 173.85L101.84 173.64L101.67 173.42L101.32 172.97L100.98 172.49L100.64 171.99L100.29 171.46L99.95 170.92L99.61 170.35L99.28 169.77L98.95 169.16L98.61 168.54L98.28 167.9L97.95 167.24L97.63 166.57L97.31 165.88L96.99 165.17L96.68 164.45L96.37 163.72L96.07 162.98L95.78 162.22L95.48 161.46L95.19 160.68L94.91 159.9L94.64 159.1L94.37 158.3L94.11 157.48L93.85 156.67L93.6 155.84L93.36 155.01L93.13 154.18L92.9 153.34L92.68 152.5L92.47 151.66L92.27 150.82L92.08 149.98L91.89 149.13L91.72 148.29L91.56 147.44L91.41 146.6L91.27 145.77L91.13 144.93L91.01 144.11L90.96 143.72L90.9 143.35L90.85 142.98L90.8 142.64L90.75 142.31L90.7 142L90.65 141.71L90.61 141.43L90.56 141.16L90.52 140.92L90.48 140.68L90.43 140.47L90.39 140.27L90.35 140.08L90.32 139.92L90.28 139.77L90.25 139.64L90.22 139.52L90.19 139.42L90.16 139.34L90.14 139.27L90.11 139.22L90.09 139.19L90.07 139.17L90.05 139.18L90.04 139.2L90.02 139.24L90.01 139.3L90 139.37L89.99 139.46L89.99 139.58L89.98 139.7L89.98 139.85L89.98 140.01L89.99 140.2L89.99 140.4L90 140.62L90.01 140.86L90.02 141.12L90.04 141.4L90.06 141.7L90.08 142L90.1 142.3L90.12 142.6L90.15 142.9L90.18 143.21L90.21 143.51L90.24 143.82L90.27 144.13L90.3 144.43L90.34 144.74L90.38 145.05L90.42 145.36L90.46 145.67L90.51 145.99L90.55 146.3L90.6 146.62L90.65 146.94L90.7 147.26L90.75 147.58L90.81 147.9L90.87 148.23L90.92 148.56L90.98 148.89L91.05 149.22L91.11 149.55L91.17 149.89L91.25 150.22L91.32 150.56L91.39 150.9L91.46 151.24L91.53 151.59L91.61 151.93L91.69 152.28L91.78 152.64L91.86 152.99L91.95 153.34L92.04 153.7L92.13 154.06L92.22 154.43L92.38 155.06L92.55 155.68L92.72 156.29L92.88 156.89L93.05 157.47L93.22 158.05L93.39 158.61L93.56 159.16L93.73 159.71L93.9 160.25L94.08 160.77L94.25 161.29L94.43 161.79L94.61 162.28L94.79 162.77L94.97 163.25L95.15 163.72L95.34 164.18L95.52 164.63L95.71 165.08L95.9 165.51L96.09 165.95L96.29 166.37L96.49 166.79L96.68 167.2L96.89 167.59L97.09 167.99L97.3 168.38L97.51 168.76L97.73 169.15L97.94 169.52L98.17 169.89L98.39 170.25L98.62 170.6L98.85 170.96L99.08 171.3L99.32 171.65L99.56 171.99L99.81 172.33L100.05 172.66L100.13 172.76L100.21 172.86L100.28 172.97L100.36 173.07L100.44 173.16L100.51 173.27L100.57 173.36L100.64 173.46L100.71 173.56L100.77 173.66L100.84 173.75L100.9 173.84L100.96 173.94L101.03 174.03L101.08 174.11L101.14 174.2L101.19 174.29L101.24 174.37L101.29 174.45L101.34 174.53L101.39 174.61L101.43 174.68L101.47 174.75L101.52 174.83L101.55 174.89L101.59 174.96L101.62 175.02L101.65 175.07L101.67 175.13L101.7 175.18L101.72 175.23L101.75 175.28L101.76 175.32L101.78 175.36L101.78 175.39L101.8 175.43L101.8 175.46L101.8 175.48L101.8 175.5L101.8 175.52L101.78 175.54L101.73 175.59L101.67 175.63L101.59 175.68L101.49 175.74L101.36 175.8L101.23 175.88L101.08 175.96L100.91 176.04L100.73 176.13L100.54 176.22L100.34 176.32L100.13 176.41L99.91 176.52L99.69 176.63L99.45 176.73L99.21 176.84L98.97 176.95L98.73 177.06L98.48 177.16L98.23 177.27L97.98 177.38L97.74 177.48L97.49 177.58L97.25 177.69L97.02 177.78L96.78 177.88L96.56 177.97L96.35 178.06L96.14 178.14L95.94 178.21L95.76 178.28L95.59 178.34L95.43 178.4L95.29 178.45L95.16 178.49L95.05 178.52L94.96 178.55L94.88 178.56L94.83 178.57L94.81 178.56L94.8 178.55L94.78 178.53L94.76 178.5L94.74 178.46L94.72 178.41L94.7 178.36L94.68 178.3L94.66 178.22L94.65 178.14L94.62 178.05L94.6 177.95L94.58 177.84L94.56 177.73L94.55 177.61L94.52 177.47L94.5 177.34L94.48 177.19L94.46 177.04L94.44 176.87L94.42 176.7L94.39 176.52L94.37 176.33L94.35 176.14L94.33 175.93L94.31 175.72L94.29 175.5L94.26 175.28L94.24 175.05L94.22 174.8L94.2 174.55L94.17 174.29L94.15 174.03L94.13 173.76L94.11 173.48L94.08 173.19L94.06 172.89L94.04 172.59L94.02 172.28L93.99 171.96L93.98 171.69L93.95 171.45L93.93 171.21L93.91 170.97L93.89 170.76L93.87 170.56L93.84 170.37L93.82 170.18L93.79 170.01L93.75 169.85L93.72 169.7L93.68 169.56L93.64 169.43L93.59 169.31L93.54 169.2L93.49 169.1L93.43 169L93.36 168.92L93.29 168.84L93.21 168.77L93.13 168.71L93.04 168.65L92.95 168.61L92.84 168.57L92.72 168.53L92.61 168.5L92.48 168.48L92.33 168.46L92.19 168.44L92.03 168.44L91.87 168.44L91.69 168.44L91.51 168.44L91.3 168.45L91.1 168.46L90.88 168.48L90.64 168.49L90.4 168.51L90.15 168.54L89.87 168.56L89.51 168.59L89.15 168.62L88.8 168.65L88.44 168.68L88.09 168.71L87.74 168.74L87.39 168.76L87.06 168.79L86.72 168.81L86.39 168.84L86.06 168.86L85.74 168.89L85.42 168.91L85.11 168.93L84.8 168.95L84.51 168.97L84.22 168.98L83.93 169L83.66 169.02L83.39 169.03L83.12 169.05L82.87 169.07L82.63 169.07L82.4 169.09L82.17 169.09L81.96 169.11L81.76 169.11L81.56 169.12L81.38 169.13L81.21 169.13L81.05 169.13L80.91 169.13L80.77 169.13L80.65 169.13L80.54 169.13L80.44 169.13L80.36 169.13L80.29 169.12L80.23 169.11L80.19 169.1L80.15 169.09L80.11 169.07L80.08 169.06L80.04 169.04L80.01 169.02L79.98 169L79.96 168.97L79.93 168.94L79.91 168.89L79.9 168.85L79.88 168.81L79.88 168.74L79.88 168.68L79.88 168.61L79.88 168.52L79.88 168.43L79.9 168.33L79.91 168.21L79.93 168.08L79.96 167.94L79.98 167.79L80.02 167.62L80.06 167.44L80.11 167.25L80.16 167.03L80.21 166.8L80.27 166.55L80.34 166.29L80.42 166L80.5 165.7L80.57 165.38L80.67 165.03L80.77 164.67L80.87 164.28L80.98 163.87L81.09 163.43L81.22 162.98L81.35 162.49L81.49 161.98L81.63 161.45L81.71 161.16L81.78 160.89L81.86 160.62L81.93 160.36L81.99 160.1L82.06 159.84L82.12 159.6L82.19 159.36L82.25 159.12L82.3 158.9L82.36 158.68L82.41 158.46L82.46 158.25L82.51 158.05L82.55 157.86L82.6 157.67L82.64 157.49L82.68 157.31L82.71 157.14L82.75 156.98L82.79 156.82L82.81 156.67L82.84 156.53L82.86 156.39L82.89 156.27L82.91 156.15L82.93 156.03L82.94 155.92L82.96 155.82L82.97 155.72L82.97 155.63L82.98 155.55L82.98 155.48L82.99 155.42L82.98 155.35L82.98 155.3L82.97 155.25L82.97 155.22L82.95 155.18L82.94 155.16L82.92 155.14L82.89 155.11L82.84 155.09L82.79 155.06L82.72 155.03L82.64 154.99L82.55 154.95L82.45 154.9L82.34 154.85L82.22 154.81L82.09 154.75L81.94 154.69L81.79 154.64L81.63 154.57L81.45 154.51L81.27 154.44L81.09 154.37L80.89 154.29L80.68 154.22L80.47 154.14L80.25 154.06L80.03 153.98L79.79 153.9L79.54 153.81L79.3 153.73L79.05 153.64L78.78 153.54L78.51 153.45L78.25 153.36L77.97 153.27L77.69 153.16L77.4 153.07L77.11 152.97L76.82 152.88L76.51 152.77L76.21 152.67L75.9 152.58L75.59 152.47L75.28 152.37L74.96 152.27L74.65 152.17L74.33 152.07L74.02 151.97L73.71 151.87L73.41 151.77L73.11 151.67L72.81 151.58L72.52 151.48L72.24 151.39L71.95 151.29L71.68 151.19L71.41 151.1L71.15 151.01L70.89 150.92L70.64 150.84L70.38 150.75L70.15 150.67L69.92 150.58L69.69 150.5L69.48 150.42L69.27 150.35L69.07 150.27L68.87 150.19L68.69 150.13L68.51 150.06L68.35 150L68.2 149.93L68.04 149.87L67.91 149.81L67.78 149.76L67.66 149.71L67.56 149.66L67.47 149.62L67.38 149.58L67.31 149.54L67.24 149.5L67.2 149.48L67.17 149.45L67.14 149.43L67.13 149.41L67.13 149.39L67.14 149.35L67.16 149.31L67.19 149.26L67.23 149.2L67.28 149.13L67.35 149.05L67.42 148.97L67.5 148.87L67.58 148.77L67.68 148.66L67.78 148.54L67.9 148.42L68.02 148.28L68.15 148.14L68.29 147.99L68.43 147.83L68.59 147.68L68.75 147.51L68.92 147.33L69.09 147.16L69.27 146.97L69.46 146.78L69.65 146.59L69.84 146.38L70.05 146.18L70.26 145.97L70.47 145.75L70.69 145.54L70.92 145.32L71.15 145.09L71.39 144.86L71.62 144.63L71.86 144.39L72.11 144.15L72.36 143.91L72.61 143.67L72.87 143.43L73.13 143.17L73.39 142.93L79.83 136.89L79.26 136.1L79.17 135.98L79.08 135.87L78.98 135.74L78.87 135.61L78.75 135.47L78.63 135.33L78.49 135.18L78.36 135.02L78.21 134.86L78.05 134.7L77.89 134.54L77.72 134.37L77.55 134.2L77.37 134.03L77.19 133.86L77 133.68L76.82 133.5L76.62 133.32L76.43 133.14L76.22 132.97L76.02 132.79L75.82 132.61L75.62 132.43L75.42 132.26L75.22 132.09L75.02 131.92L74.81 131.75L74.6 131.58L74.41 131.43L74.21 131.27L74.01 131.12L73.82 130.97L73.63 130.82L73.45 130.69L73.26 130.56L73.08 130.43L72.91 130.31L72.74 130.2L72.57 130.1L72.42 130L72.2 129.87L71.98 129.74L71.76 129.61L71.54 129.48L71.31 129.35L71.08 129.23L70.85 129.11L70.62 128.99L70.39 128.87L70.15 128.76L69.92 128.64L69.68 128.53L69.44 128.42L69.2 128.31L68.95 128.21L68.71 128.11L68.46 128.01L68.22 127.91L67.96 127.81L67.72 127.72L67.47 127.62L67.22 127.53L66.96 127.44L66.7 127.36L66.45 127.28L66.19 127.2L65.93 127.12L65.68 127.04L65.42 126.97L65.16 126.9L64.9 126.83L64.64 126.76L64.38 126.69L64.12 126.63L63.85 126.58L63.59 126.51L63.33 126.46L63.07 126.41L62.8 126.36L62.54 126.32L62.41 126.29L62.29 126.27L62.17 126.24L62.05 126.22L61.92 126.19L61.8 126.17L61.67 126.14L61.55 126.12L61.43 126.09L61.31 126.06L61.19 126.04L61.07 126.01L60.95 125.99L60.84 125.96L60.72 125.93L60.61 125.91L60.5 125.88L60.39 125.86L60.28 125.83L60.17 125.8L60.07 125.78L59.97 125.75L59.87 125.73L59.78 125.7L59.68 125.68L59.6 125.65L59.51 125.63L59.42 125.6L59.34 125.58L59.27 125.56L59.19 125.54L59.13 125.52L59.06 125.49L59 125.47L58.94 125.45L58.88 125.43L58.84 125.41L58.79 125.4L58.75 125.38L58.72 125.36L58.65 125.33L58.6 125.3L58.54 125.28L58.5 125.24L58.45 125.21L58.42 125.18L58.4 125.14L58.39 125.1L58.39 125.05L58.41 124.99L58.44 124.93L58.5 124.86L58.56 124.78L58.65 124.69L58.75 124.58L58.88 124.47L59.04 124.35L59.22 124.2L59.42 124.04L59.65 123.87L59.91 123.68L60.19 123.48L60.51 123.25L60.86 123L61.25 122.74L61.66 122.46L62.12 122.14L62.61 121.81L63.14 121.45L63.71 121.07L64.32 120.66L64.98 120.23L65.67 119.76L66.42 119.27L67.2 118.74L68.04 118.19L68.92 117.6L69.86 116.98L70.85 116.33L71.88 115.64L72.09 115.51L72.29 115.37L72.49 115.24L72.7 115.1L72.9 114.97L73.09 114.84L73.29 114.7L73.47 114.58L73.67 114.45L73.85 114.32L74.04 114.2L74.22 114.08L74.39 113.95L74.56 113.84L74.73 113.72L74.9 113.6L75.06 113.49L75.22 113.38L75.37 113.27L75.51 113.17L75.66 113.06L75.79 112.97L75.93 112.86L76.05 112.78L76.17 112.69L76.29 112.6L76.4 112.52L76.51 112.44L76.6 112.36L76.69 112.29L76.78 112.23L76.86 112.17L76.92 112.1L76.99 112.05L77.05 112L77.1 111.96L77.13 111.92L77.17 111.89L77.2 111.85L77.21 111.83L77.24 111.77L77.25 111.69L77.25 111.6L77.24 111.49L77.22 111.37L77.18 111.23L77.14 111.07L77.07 110.91L77.01 110.73L76.92 110.54L76.84 110.34L76.74 110.13L76.62 109.91L76.51 109.68L76.38 109.44L76.24 109.19L76.1 108.93L75.94 108.67L75.78 108.4L75.61 108.12L75.44 107.84L75.26 107.55L75.08 107.27L74.89 106.97L74.69 106.67L74.49 106.38L74.28 106.08L74.07 105.77L73.86 105.47L73.65 105.17L73.42 104.87L73.2 104.56L72.98 104.26L72.75 103.97L72.52 103.68L72.3 103.38L72.07 103.09L71.84 102.81L71.61 102.54L71.38 102.27L71.22 102.08L71.05 101.89L70.88 101.7L70.7 101.49L70.51 101.29L70.32 101.08L70.13 100.86L69.92 100.65L69.71 100.43L69.5 100.21L69.28 99.98L69.05 99.75L68.83 99.52L68.6 99.28L68.37 99.05L68.13 98.82L67.89 98.58L67.65 98.34L67.4 98.11L67.16 97.87L66.91 97.63L66.66 97.39L66.41 97.15L66.16 96.92L65.91 96.69L65.66 96.46L65.41 96.22L65.16 96L64.9 95.77L64.66 95.55L64.41 95.33L64.17 95.11L63.92 94.9L63.68 94.69L63.44 94.49L63.21 94.28L62.97 94.09L62.75 93.9L62.52 93.71L62.3 93.54L62.16 93.42L62.02 93.3L61.89 93.19L61.78 93.09L61.67 92.99L61.57 92.89L61.48 92.8L61.39 92.71L61.32 92.63L61.25 92.56L61.2 92.48L61.15 92.41L61.12 92.34L61.09 92.28L61.07 92.21L61.07 92.16L61.07 92.11L61.08 92.06L61.1 92.01L61.14 91.96L61.18 91.92L61.24 91.88L61.3 91.84L61.38 91.8L61.47 91.77L61.56 91.74L61.67 91.71L61.79 91.68L61.92 91.65L62.07 91.63L62.23 91.61L62.39 91.59L62.56 91.56L62.76 91.54L62.95 91.52L63.17 91.51L63.39 91.49L63.63 91.47L63.88 91.46L64.15 91.43L64.28 91.43L64.41 91.42L64.56 91.41L64.72 91.41L64.88 91.39L65.05 91.38L65.23 91.37L65.41 91.36L65.6 91.35L65.8 91.33L66 91.32L66.21 91.3L66.42 91.29L66.64 91.28L66.86 91.26L67.09 91.24L67.32 91.23L67.56 91.21L67.8 91.2L68.04 91.17L68.28 91.16L68.53 91.14L68.79 91.12L69.04 91.1L69.29 91.09L69.54 91.07L69.8 91.04L70.05 91.02L70.31 91L70.57 90.98L70.83 90.96L71.08 90.94L71.34 90.92L71.59 90.9L71.85 90.88L72.11 90.86L72.35 90.83L72.6 90.81L72.85 90.79L73.09 90.77L73.34 90.75L73.58 90.73L73.84 90.71L74.1 90.69L74.37 90.67L74.63 90.65L74.91 90.63L75.18 90.61L75.46 90.59L75.74 90.56L76.03 90.54L76.32 90.52L76.61 90.49L76.89 90.47L77.19 90.45L77.48 90.42L77.77 90.4L78.07 90.38L78.36 90.35L78.65 90.33L78.94 90.31L79.23 90.29L79.52 90.26L79.8 90.24L80.08 90.22L80.37 90.2L80.65 90.18L80.92 90.16L81.19 90.14L81.45 90.12L81.72 90.1L81.97 90.08L82.22 90.06L82.47 90.05L82.71 90.03L82.94 90L83.17 89.99L83.39 89.98L83.61 89.96L83.81 89.94L84.01 89.93L84.2 89.92L84.4 89.9L84.59 89.89L84.79 89.87L84.97 89.85L85.16 89.84L85.35 89.83L85.53 89.81L85.71 89.79L85.88 89.78L86.06 89.77L86.23 89.74L86.39 89.73L86.56 89.72L86.72 89.7L86.88 89.68L87.03 89.67L87.17 89.66L87.31 89.64L87.45 89.62L87.59 89.61L87.71 89.59L87.83 89.58L87.96 89.57L88.06 89.55L88.17 89.54L88.27 89.53L88.36 89.51L88.45 89.51L88.53 89.49L88.6 89.48L88.67 89.47L88.73 89.46L88.78 89.45L88.83 89.44L88.87 89.43L88.9 89.42L88.92 89.41L88.94 89.4L88.99 89.36L89.03 89.29L89.06 89.2L89.09 89.07L89.11 88.94L89.12 88.77L89.12 88.59L89.12 88.38L89.1 88.16L89.08 87.92L89.06 87.66L89.02 87.38L88.99 87.09L88.94 86.79L88.89 86.47L88.83 86.14L88.78 85.8L88.7 85.45L88.63 85.09L88.56 84.72L88.47 84.34L88.39 83.96L88.3 83.57L88.21 83.18L88.11 82.77L88.01 82.38L87.91 81.97L87.8 81.58L87.68 81.17L87.57 80.77L87.45 80.37L87.34 79.97L87.21 79.58L87.09 79.2L86.96 78.82L86.84 78.45L86.71 78.09L86.58 77.73L86.45 77.38L86.32 77.05L86.29 76.96L86.25 76.86L86.21 76.76L86.16 76.66L86.12 76.55L86.07 76.44L86.02 76.32L85.97 76.2L85.91 76.09L85.86 75.96L85.8 75.84L85.74 75.71L85.68 75.58L85.62 75.45L85.56 75.31L85.49 75.18L85.43 75.05L85.36 74.91L85.3 74.77L85.23 74.63L85.16 74.49L85.09 74.35L85.02 74.21L84.95 74.07L84.88 73.93L84.81 73.78L84.74 73.64L84.66 73.5L84.59 73.36L84.52 73.22L84.45 73.08L84.38 72.95L84.3 72.81L84.23 72.67L84.16 72.54L84.09 72.41L84.02 72.28L83.94 72.15L83.88 72.02L83.81 71.9L83.74 71.78L83.67 71.66L83.6 71.54L83.53 71.42L83.47 71.31L83.4 71.2L83.34 71.08L83.27 70.96L83.21 70.85L83.15 70.74L83.09 70.64L83.04 70.53L82.98 70.43L82.92 70.33L82.86 70.23L82.81 70.14L82.76 70.05L82.71 69.95L82.67 69.86L82.62 69.78L82.58 69.7L82.53 69.62L82.49 69.54L82.45 69.46L82.42 69.4L82.38 69.33L82.35 69.27L82.32 69.21L82.29 69.16L82.27 69.1L82.24 69.05L82.22 69.01L82.2 68.97L82.18 68.94L82.17 68.9L82.16 68.88L82.14 68.86L82.14 68.84L82.14 68.83L82.14 68.82L82.14 68.8L82.15 68.78L82.17 68.76L82.19 68.74L82.22 68.73L82.27 68.71L82.32 68.7L82.37 68.69L82.43 68.68L82.5 68.68L82.57 68.67L82.65 68.67L82.73 68.67L82.83 68.67L82.93 68.67L83.04 68.68L83.15 68.68L83.27 68.69L83.39 68.71L83.52 68.71L83.65 68.73L83.79 68.75L83.94 68.76L84.09 68.78L84.25 68.8L84.41 68.82L84.57 68.84L84.74 68.87L84.92 68.9L85.1 68.92L85.29 68.95L85.48 68.99L85.67 69.02L85.87 69.05L86.08 69.09L86.29 69.13L86.5 69.17L86.72 69.21L86.93 69.25L87.16 69.3L87.56 69.38L87.96 69.46L88.35 69.55L88.74 69.64L89.13 69.73L89.51 69.83L89.89 69.92L90.26 70.01L90.63 70.11L91 70.21L91.37 70.31L91.73 70.42L92.08 70.52L92.44 70.63L92.79 70.73L93.14 70.85L93.49 70.96L93.83 71.07L94.17 71.19L94.51 71.31L94.85 71.43L95.18 71.55L95.51 71.68L95.84 71.8L96.17 71.93L96.5 72.07L96.82 72.21L97.14 72.35L97.46 72.49L97.79 72.63L98.1 72.78L98.42 72.93L98.74 73.08L99.05 73.23L99.36 73.39L99.68 73.55L99.99 73.71L100.31 73.88L100.62 74.05L100.93 74.22L101.14 74.34L101.34 74.45L101.53 74.55L101.72 74.65L101.89 74.74L102.06 74.82L102.21 74.9L102.37 74.97L102.51 75.03L102.65 75.09L102.78 75.14L102.9 75.18L103.01 75.21L103.13 75.24L103.23 75.26L103.34 75.27L103.43 75.27L103.53 75.27L103.61 75.26L103.7 75.24L103.78 75.21L103.86 75.17L103.94 75.13L104.01 75.08L104.09 75.01L104.16 74.95L104.23 74.87L104.3 74.78L104.37 74.69L104.44 74.58L104.51 74.47L104.58 74.34L104.66 74.21L104.73 74.07L104.81 73.92L104.88 73.75L104.96 73.58L105.04 73.41L105.12 73.21L105.22 73.02L105.37 72.67L105.51 72.32L105.66 71.97L105.8 71.62L105.94 71.27L106.07 70.92L106.2 70.57L106.33 70.22L106.46 69.86L106.58 69.51L106.69 69.14L106.82 68.78L106.92 68.41L107.04 68.04L107.15 67.67L107.26 67.29L107.36 66.9L107.46 66.51L107.57 66.11L107.67 65.71L107.77 65.3L107.86 64.88L107.95 64.46L108.05 64.02L108.14 63.58L108.23 63.13L108.32 62.66L108.41 62.19L108.49 61.71L108.58 61.22L108.67 60.72L108.75 60.21L108.84 59.68L108.93 59.14L109.01 58.59L109.1 58.03L109.18 57.46L109.26 56.86L109.35 56.26L109.44 55.64L109.46 55.48L109.48 55.32L109.5 55.16L109.52 55L109.55 54.84L109.57 54.69L109.6 54.54L109.62 54.39L109.64 54.24L109.66 54.1L109.68 53.95L109.7 53.82L109.73 53.67L109.75 53.54L109.77 53.41L109.78 53.28L109.8 53.16L109.83 53.04L109.85 52.92L109.86 52.8L109.88 52.69L109.9 52.59L109.92 52.49L109.93 52.39L109.96 52.3L109.97 52.21L109.98 52.13L110 52.04L110.01 51.98L110.03 51.91L110.04 51.84L110.06 51.78L110.07 51.74L110.09 51.69L110.09 51.65L110.11 51.61L110.11 51.59L110.12 51.57L110.13 51.55L110.14 51.55L110.16 51.52L110.19 51.5L110.23 51.49L110.27 51.48L110.3 51.48L110.34 51.49L110.4 51.5L110.45 51.51L110.5 51.53L110.56 51.56L110.63 51.59L110.69 51.63L110.76 51.68L110.84 51.74L110.93 51.8L111.01 51.86L111.12 51.94L111.22 52.02L111.32 52.11L111.43 52.2L111.55 52.31L111.68 52.42L111.81 52.54L111.95 52.67L112.09 52.81L112.25 52.95L112.41 53.11L112.58 53.28L112.76 53.45L112.94 53.63L113.14 53.82L113.33 54.02L113.55 54.23L113.77 54.45L113.99 54.68L114.23 54.93L114.47 55.17L114.73 55.43L114.99 55.71L115.26 55.99L115.42 56.16L115.59 56.32L115.75 56.5L115.92 56.68L116.08 56.86L116.26 57.05L116.44 57.24L116.61 57.43L116.79 57.63L116.98 57.83L117.16 58.03L117.34 58.24L117.52 58.44L117.71 58.65L117.9 58.86L118.09 59.07L118.27 59.29L118.46 59.5L118.65 59.71L118.84 59.93L119.02 60.15L119.2 60.36L119.39 60.58L119.57 60.79L119.75 61L119.93 61.21L120.1 61.43L120.28 61.63L120.45 61.84L120.61 62.04L120.78 62.25L120.95 62.44L121.1 62.64L121.26 62.83L121.41 63.02L121.56 63.2L121.7 63.38L121.84 63.56L121.97 63.73L122.1 63.9L122.49 64.41L122.86 64.89L123.21 65.36L123.55 65.8L123.87 66.21L124.18 66.6L124.47 66.97L124.73 67.32L124.99 67.64L125.24 67.95L125.47 68.23L125.69 68.49L125.89 68.73L126.09 68.96L126.27 69.16L126.45 69.34L126.61 69.51L126.76 69.66L126.91 69.79L127.04 69.9L127.17 70.01L127.3 70.09L127.41 70.16L127.52 70.2L127.62 70.24L127.72 70.27L127.82 70.28L127.91 70.27L128 70.26L128.07 70.23L128.16 70.19L128.24 70.14L128.32 70.07L128.4 70L128.48 69.92L128.56 69.82L128.64 69.72L128.72 69.61L128.81 69.49L128.9 69.36L129.05 69.14L129.22 68.92L129.4 68.68L129.59 68.45L129.78 68.21L130 67.96L130.21 67.71L130.44 67.45L130.68 67.19L130.93 66.93L131.19 66.67L131.45 66.4L131.72 66.13L132 65.85L132.29 65.58L132.58 65.3L132.88 65.02L133.19 64.74L133.5 64.46L133.82 64.18L134.15 63.9L134.48 63.61L134.81 63.33L135.15 63.05L135.49 62.77L135.84 62.49L136.18 62.21L136.54 61.93L136.89 61.66L137.25 61.38L137.61 61.12L137.96 60.84L138.33 60.58L138.69 60.32L139.05 60.06L139.42 59.81L139.78 59.56L140.14 59.32L140.5 59.08L140.86 58.85L141.11 58.69L141.38 58.52L141.65 58.36L141.93 58.18L142.22 58.01L142.51 57.83L142.82 57.66L143.13 57.48L143.44 57.29L143.76 57.11L144.08 56.93L144.4 56.75L144.72 56.57L145.05 56.38L145.37 56.2L145.7 56.03L146.02 55.85L146.34 55.68L146.65 55.51L146.96 55.34L147.27 55.19L147.57 55.03L147.86 54.88L148.14 54.73L148.42 54.59L148.68 54.46L148.94 54.33L149.18 54.21L149.41 54.1L149.63 53.99L149.84 53.9L150.02 53.82L150.2 53.74L150.36 53.67L150.5 53.62L150.62 53.57L150.72 53.54L150.8 53.52L150.87 53.51L150.91 53.51L150.92 53.52L150.95 53.54L150.96 53.58L150.97 53.62L150.99 53.67L151.01 53.73L151.03 53.81L151.04 53.9L151.05 53.99L151.07 54.1L151.08 54.21L151.09 54.34L151.1 54.47L151.12 54.62L151.13 54.77L151.14 54.94L151.15 55.12L151.16 55.3L151.18 55.49L151.18 55.7L151.2 55.9L151.21 56.13L151.21 56.36L151.22 56.59L151.23 56.84L151.24 57.1L151.25 57.37L151.26 57.64L151.26 57.92L151.27 58.21L151.27 58.51L151.28 58.82L151.28 59.13L151.29 59.45L151.29 59.78L151.3 60.12L151.3 60.47L151.31 60.82L151.31 61.18L151.31 61.55L151.31 62.13L151.31 62.69L151.32 63.23L151.33 63.74L151.33 64.24L151.33 64.71L151.34 65.16L151.36 65.6L151.36 66.02L151.38 66.42L151.39 66.81L151.4 67.18L151.42 67.55L151.44 67.9L151.46 68.24L151.48 68.58L151.51 68.9L151.54 69.23L151.57 69.54L151.59 69.85L151.63 70.16L151.67 70.46L151.71 70.77L151.75 71.08L151.8 71.39L151.85 71.71L151.91 72.02L151.97 72.35L152.03 72.67L152.09 73.02L152.16 73.36L152.23 73.72L152.31 74.08L152.39 74.47L152.48 74.86L152.57 75.27L152.67 75.7L152.77 76.14L152.88 76.6L152.98 77.08L153.04 77.32L153.1 77.55L153.15 77.77L153.2 77.98L153.24 78.17L153.29 78.35L153.34 78.52L153.38 78.68L153.42 78.83L153.47 78.98L153.51 79.11L153.55 79.22L153.6 79.33L153.65 79.43L153.69 79.52L153.74 79.61L153.79 79.68L153.84 79.75L153.89 79.8L153.95 79.86L154.01 79.9L154.07 79.93L154.14 79.96L154.21 79.98L154.28 79.99L154.36 80L154.44 80L154.52 79.99L154.62 79.99L154.72 79.97L154.82 79.95L154.94 79.92L155.05 79.89L155.17 79.86L155.3 79.82L155.44 79.77L155.58 79.72L155.73 79.67L155.9 79.62L156.07 79.56L156.15 79.53L156.25 79.5L156.37 79.45L156.49 79.41L156.63 79.36L156.77 79.31L156.93 79.26L157.1 79.19L157.28 79.13L157.47 79.06L157.67 79L157.88 78.92L158.1 78.85L158.32 78.76L158.56 78.68L158.8 78.6L159.05 78.51L159.31 78.42L159.57 78.33L160.13 78.13L160.42 78.04L160.7 77.94L161 77.83L161.3 77.72L161.61 77.61L161.92 77.51L162.23 77.39L162.55 77.29L162.87 77.18L163.2 77.06L163.53 76.94L163.86 76.83L164.19 76.71L164.53 76.59L164.87 76.48L165.2 76.35L165.54 76.24L165.88 76.12L166.22 76L166.82 75.79L167.39 75.59L167.95 75.39L168.47 75.21L168.98 75.03L169.45 74.87L169.91 74.71L170.35 74.56L170.76 74.43L171.15 74.29L171.51 74.17L171.87 74.05L172.19 73.95L172.5 73.84L172.79 73.75L173.07 73.67L173.32 73.59L173.56 73.52L173.78 73.45L173.98 73.4L174.18 73.34L174.35 73.3L174.52 73.26L174.66 73.23L174.8 73.21L174.91 73.19L175.03 73.17L175.12 73.17L175.21 73.17L175.29 73.17L175.35 73.18L175.41 73.19L175.46 73.21L175.5 73.23L175.53 73.26L175.56 73.29L175.57 73.32L175.59 73.36L175.6 73.41L175.6 73.46L175.59 73.49L175.57 73.53L175.55 73.58L175.52 73.66L175.47 73.75L175.42 73.85L175.35 73.97L175.27 74.11L175.19 74.26L175.1 74.42L175 74.6L174.89 74.79L174.77 74.99L174.65 75.21L174.51 75.44L174.37 75.68L174.22 75.92L174.07 76.19L173.9 76.46L173.73 76.74L173.56 77.04L173.38 77.35L173.19 77.66L172.99 77.98L172.79 78.32L172.59 78.65L172.38 79L172.16 79.36L171.94 79.73L171.71 80.1L171.48 80.47L171.25 80.86L171.01 81.25L170.76 81.65L170.52 82.05L170.27 82.46L170.02 82.87L169.76 83.29L169.5 83.71L169.23 84.13L168.97 84.55L168.71 84.98L168.46 85.39L168.21 85.8L167.96 86.2L167.71 86.6L167.47 86.99L167.24 87.38L167 87.77L166.77 88.14L166.54 88.51L166.32 88.88L166.1 89.22L165.9 89.57L165.69 89.91L165.49 90.24L165.29 90.56L165.1 90.87L164.92 91.17L164.74 91.47L164.57 91.75L164.41 92.02L164.25 92.28L164.1 92.52L163.97 92.76L163.83 92.99L163.7 93.2L163.58 93.4L163.48 93.58L163.38 93.76L163.28 93.92L163.2 94.06L163.12 94.19L163.05 94.31L163 94.41L162.95 94.5L162.91 94.57L162.89 94.62L162.87 94.66L162.87 94.68L162.87 94.71L162.87 94.73L162.89 94.76L162.89 94.79L162.91 94.81L162.94 94.84L162.96 94.86L163 94.89L163.04 94.91L163.09 94.94L163.14 94.96L163.2 94.99L163.27 95.01L163.35 95.03L163.43 95.06L163.53 95.08L163.63 95.11L163.74 95.14L163.87 95.16L164 95.19L164.15 95.22L164.3 95.25L164.48 95.28L164.66 95.31L164.85 95.34L165.05 95.38L165.28 95.41L165.51 95.44L165.76 95.49L166.02 95.52L166.3 95.56L166.59 95.61L166.9 95.65L167.22 95.7L167.57 95.75L167.93 95.79L168.3 95.84L168.69 95.9L169.1 95.95L169.53 96.01L170.21 96.1L170.87 96.19L171.53 96.27L172.16 96.36L172.79 96.44L173.4 96.53L174 96.61L174.58 96.69L175.15 96.76L175.7 96.85L176.24 96.92L176.77 97L177.27 97.07L177.77 97.15L178.25 97.22L178.71 97.29L179.16 97.36L179.6 97.43L180.01 97.49L180.41 97.56L180.8 97.62L181.16 97.68L181.52 97.74L181.85 97.8L182.16 97.85L182.46 97.91L182.74 97.96L183.01 98.01L183.25 98.06L183.48 98.11L183.69 98.15L183.88 98.19L184.05 98.24L184.2 98.28L184.34 98.31L184.45 98.35L184.55 98.37L184.62 98.41L184.68 98.43L184.71 98.45L184.73 98.48L184.74 98.5L184.76 98.52L184.76 98.55L184.76 98.58L184.76 98.61L184.76 98.64L184.76 98.68L184.74 98.71L184.73 98.76L184.71 98.8L184.69 98.84L184.66 98.89L184.63 98.93L184.6 98.99L184.56 99.04L184.53 99.1L184.48 99.15L184.42 99.21L184.37 99.28L184.32 99.34L184.26 99.41L184.19 99.49L184.12 99.56L184.05 99.64L183.97 99.71L183.88 99.8L183.8 99.88L183.71 99.97L183.62 100.06L183.52 100.15L183.42 100.25L183.31 100.35L183.19 100.45L183.08 100.56L182.96 100.66L182.83 100.77L182.7 100.89L182.57 101.01L182.43 101.12L181.74 101.73L181.07 102.33L180.41 102.91L179.77 103.48L179.14 104.02L178.53 104.56L177.94 105.09L177.36 105.6L176.8 106.1L176.26 106.58L175.73 107.04L175.21 107.5L174.72 107.94L174.25 108.36L173.79 108.77L173.34 109.16L172.92 109.55L172.51 109.91L172.12 110.26L171.74 110.59L171.38 110.91L171.04 111.22L170.72 111.52L170.42 111.79L170.13 112.05L169.86 112.3L169.6 112.52L169.37 112.73L169.15 112.94L168.96 113.12L168.77 113.29L168.61 113.44L168.47 113.58L168.34 113.7L168.23 113.8L168.14 113.89L168.06 113.97L168.01 114.02L167.98 114.06L167.96 114.09L167.96 114.1L167.98 114.12L168.01 114.14L168.06 114.17L168.11 114.21L168.19 114.25L168.27 114.29L168.37 114.34L168.49 114.4L168.61 114.46L168.75 114.53L168.89 114.6L169.05 114.67L169.22 114.75L169.4 114.83L169.6 114.92L169.8 115.01L170.02 115.1L170.24 115.2L170.47 115.3L170.71 115.41L170.96 115.51L171.22 115.63L171.48 115.74L171.76 115.86L172.05 115.98L172.33 116.11L172.64 116.23L172.94 116.36L173.25 116.49L173.57 116.62L173.89 116.76L174.22 116.89L174.56 117.03L174.9 117.17L175.24 117.32L175.6 117.46L175.95 117.61L176.31 117.75L176.67 117.9L177.03 118.04L177.39 118.19L177.75 118.33L178.1 118.47L178.45 118.61L178.79 118.76L179.13 118.89L179.47 119.03L179.8 119.16L180.13 119.3L180.44 119.43L180.75 119.56L181.06 119.68L181.36 119.8L181.65 119.93L181.94 120.04L182.21 120.16L182.49 120.27L182.75 120.38L183 120.49L183.24 120.59L183.48 120.69L183.7 120.79L183.92 120.88L184.13 120.97L184.32 121.05L184.51 121.13L184.68 121.2L184.85 121.28L185 121.35L185.14 121.41L185.27 121.46L185.38 121.52L185.48 121.57L185.57 121.61L185.65 121.65L185.71 121.68L185.76 121.7L185.79 121.72L185.81 121.74L185.84 121.77L185.87 121.81L185.89 121.85L185.89 121.89L185.9 121.93L185.9 121.97L185.89 122.02L185.87 122.07L185.85 122.11L185.82 122.17L185.79 122.22L185.74 122.29L185.69 122.35L185.63 122.41L185.56 122.48L185.48 122.55L185.4 122.62L185.3 122.7L185.2 122.78L185.09 122.87L184.97 122.96L184.84 123.05L184.71 123.14L184.56 123.24L184.4 123.35L184.24 123.46L184.06 123.57L183.88 123.69L183.68 123.8L183.47 123.93L183.26 124.06L183.03 124.2L182.8 124.35L182.55 124.49L182.29 124.65L182.02 124.8L181.74 124.97L181.44 125.13L181.14 125.31L180.82 125.49L180.54 125.65L180.24 125.82L179.94 125.98L179.64 126.14L179.32 126.31L179.01 126.47L178.69 126.64L178.36 126.81L178.03 126.97L177.69 127.13L177.35 127.29L177.01 127.46L176.65 127.62L176.3 127.79L175.94 127.94L175.58 128.11L175.21 128.27L174.84 128.43L174.47 128.59L174.08 128.75L173.7 128.91L173.31 129.07L172.92 129.22L172.53 129.38L172.13 129.54L171.74 129.69L171.33 129.85L170.92 130L170.51 130.15L170.09 130.3L169.68 130.45L169.26 130.6L168.84 130.75L168.42 130.89L167.98 131.04L167.56 131.18L167.13 131.32L166.69 131.47L166.26 131.61L165.82 131.75L165.65 131.8L165.49 131.84L165.33 131.9L165.18 131.95L165.02 132L164.87 132.05L164.71 132.1L164.57 132.15L164.42 132.2L164.28 132.25L164.14 132.3L164 132.35L163.87 132.4L163.74 132.45L163.61 132.49L163.48 132.54L163.36 132.59L163.25 132.63L163.13 132.68L163.02 132.73L162.91 132.77L162.81 132.81L162.72 132.85L162.63 132.89L162.54 132.93L162.45 132.97L162.38 133.01L162.3 133.05L162.24 133.08L162.17 133.12L162.12 133.14L162.06 133.18L162.02 133.21L161.98 133.23L161.94 133.26L161.91 133.29L161.89 133.31L161.88 133.33L161.86 133.35L161.86 133.37L161.87 133.45L161.9 133.53L161.94 133.62L161.99 133.73L162.07 133.84L162.16 133.94L162.26 134.07L162.38 134.2L162.51 134.33L162.66 134.47L162.82 134.62L163 134.77L163.19 134.93L163.39 135.09L163.61 135.26L163.83 135.43L164.07 135.61L164.32 135.79L164.59 135.98L164.86 136.17L165.14 136.37L165.43 136.57L165.74 136.76L166.06 136.97L166.39 137.18L166.72 137.39L167.06 137.61L167.42 137.82L167.78 138.04L168.15 138.26L168.53 138.49L168.91 138.71L169.31 138.94L169.71 139.17L170.12 139.39L170.53 139.62L170.95 139.86L171.38 140.08L171.81 140.31L172.25 140.55L172.41 140.63L172.57 140.71L172.73 140.79L172.88 140.88L173.04 140.96L173.19 141.04L173.33 141.12L173.49 141.2L173.63 141.28L173.77 141.36L173.9 141.44L174.04 141.52L174.17 141.59L174.3 141.67L174.42 141.74L174.54 141.81L174.66 141.89L174.78 141.96L174.88 142.03L174.99 142.09L175.09 142.16L175.19 142.22L175.28 142.28L175.37 142.34L175.45 142.4L175.53 142.46L175.61 142.51L175.68 142.56L175.75 142.61L175.8 142.66L175.86 142.7L175.91 142.74L175.95 142.78L175.99 142.83L176.02 142.86L176.05 142.89L176.07 142.92L176.09 142.95L176.1 142.97L176.1 142.99L176.09 143.05L176.05 143.11L175.98 143.19L175.91 143.27L175.8 143.37L175.67 143.46L175.52 143.57L175.35 143.68L175.17 143.8L174.96 143.93L174.75 144.06L174.51 144.19L174.26 144.33L174 144.47L173.72 144.62L173.43 144.77L173.13 144.92L172.82 145.07L172.5 145.23L172.17 145.38L171.83 145.54L171.49 145.7L171.14 145.86L170.79 146.02L170.43 146.18L170.07 146.34L169.71 146.49L169.35 146.64L168.99 146.79L168.63 146.94L168.27 147.08L167.91 147.22L167.55 147.36L167.2 147.49L166.86 147.61L166.52 147.72L166.19 147.84L165.87 147.94L165.55 148.05L165.25 148.14L165.1 148.18L164.96 148.22L164.82 148.27L164.69 148.31L164.54 148.35L164.41 148.4L164.28 148.44L164.15 148.49L164.02 148.53L163.89 148.57L163.76 148.62L163.63 148.66L163.51 148.71L163.4 148.75L163.28 148.79L163.17 148.83L163.06 148.87L162.95 148.92L162.85 148.96L162.75 149L162.65 149.04L162.55 149.08L162.47 149.11L162.38 149.15L162.3 149.19L162.22 149.22L162.15 149.26L162.08 149.29L162.01 149.33L161.96 149.36L161.9 149.39L161.85 149.41L161.8 149.44L161.76 149.47L161.73 149.5L161.7 149.52L161.67 149.54L161.65 149.57L161.64 149.58L161.63 149.6L161.63 149.62L161.62 149.65L161.62 149.68L161.62 149.72L161.63 149.76L161.63 149.82L161.65 149.88L161.66 149.94L161.68 150.02L161.7 150.09L161.72 150.17L161.74 150.26L161.76 150.35L161.79 150.45L161.83 150.56L161.86 150.66L161.89 150.78L161.93 150.89L161.97 151.02L162.01 151.14L162.05 151.27L162.1 151.4L162.14 151.54L162.19 151.68L162.24 151.82L162.3 151.97L162.35 152.12L162.4 152.27L162.46 152.43L162.52 152.59L162.58 152.75L162.64 152.92L162.7 153.08L162.76 153.25L162.83 153.42L162.89 153.6L162.96 153.77L163.03 153.94L163.1 154.12L163.17 154.3L163.24 154.48L163.31 154.65L163.38 154.83L163.45 155L163.51 155.17L163.58 155.34L163.64 155.5L163.71 155.67L163.77 155.83L163.83 156L163.89 156.15L163.95 156.31L164.01 156.46L164.07 156.61L164.12 156.76L164.17 156.91L164.23 157.04L164.28 157.19L164.33 157.32L164.38 157.45L164.42 157.58L164.46 157.69L164.51 157.82L164.55 157.93L164.59 158.04L164.62 158.14L164.66 158.24L164.69 158.33L164.71 158.42L164.74 158.5L164.77 158.58L164.79 158.65L164.81 158.72L164.83 158.77L164.84 158.83L164.86 158.88L164.87 158.92L164.87 158.95L164.87 158.98L164.88 159L164.88 159.04L164.87 159.08L164.87 159.12L164.87 159.16L164.86 159.19L164.84 159.23L164.83 159.26L164.81 159.29L164.79 159.33L164.76 159.36L164.73 159.38L164.69 159.42L164.65 159.45L164.6 159.47L164.54 159.5L164.48 159.53L164.41 159.55L164.33 159.58L164.25 159.6L164.16 159.63L164.06 159.66L163.94 159.68L163.83 159.71L163.7 159.74L163.56 159.77L163.41 159.8L163.25 159.83L163.08 159.86L162.89 159.89L162.7 159.92L162.5 159.96L162.27 159.99L162.04 160.03L161.8 160.07L161.54 160.11L161.27 160.15L160.98 160.19L160.67 160.24L160.35 160.29L160.02 160.33L159.75 160.38L159.48 160.42L159.22 160.46L158.97 160.5L158.73 160.54L158.49 160.57L158.27 160.62L158.05 160.66L157.84 160.7L157.64 160.74L157.45 160.78L157.26 160.82L157.08 160.86L156.91 160.9L156.74 160.94L156.58 160.98L156.43 161.03L156.3 161.07L156.16 161.11L156.03 161.16L155.91 161.2L155.79 161.25L155.68 161.29L155.58 161.34L155.49 161.39L155.4 161.44L155.32 161.48L155.25 161.53L155.18 161.58L155.12 161.63L155.06 161.68L155.01 161.73L154.96 161.79L154.93 161.84L154.9 161.89L154.87 161.95L154.86 162L154.84 162.06L154.83 162.12L154.83 162.18L154.83 162.2L154.83 162.22L154.85 162.26L154.86 162.29L154.89 162.33L154.91 162.38L154.94 162.44L154.96 162.49L155 162.54L155.04 162.61L155.08 162.67L155.13 162.75L155.18 162.83L155.23 162.9L155.29 162.98L155.35 163.07L155.41 163.16L155.48 163.26L155.54 163.35L155.61 163.45L155.69 163.55L155.76 163.65L155.84 163.76L155.93 163.87L156.02 163.98L156.1 164.1L156.19 164.21L156.28 164.33L156.38 164.45L156.47 164.57L156.56 164.69L156.66 164.82L156.76 164.95L156.87 165.08L156.97 165.21L157.07 165.34L157.18 165.47L157.29 165.6L157.4 165.73L157.51 165.86L157.62 165.99L157.73 166.13L157.84 166.26L157.94 166.39L158.05 166.51L158.15 166.64L158.26 166.77L158.36 166.9L158.45 167.01L158.55 167.14L158.64 167.25L158.74 167.37L158.83 167.48L158.92 167.59L159 167.7L159.09 167.81L159.17 167.92L159.25 168.02L159.33 168.11L159.4 168.21L159.47 168.31L159.54 168.39L159.61 168.48L159.67 168.57L159.73 168.64L159.78 168.72L159.84 168.79L159.89 168.86L159.93 168.92L159.98 168.98L160.01 169.04L160.05 169.09L160.08 169.13L160.11 169.17L160.13 169.21L160.15 169.24L160.17 169.27L160.18 169.3L160.19 169.31L160.19 169.33L160.19 169.33L160.17 169.35L160.16 169.36L160.13 169.38L160.09 169.4L160.06 169.42L160.01 169.44L159.95 169.47L159.89 169.5L159.83 169.52L159.75 169.55L159.67 169.59L159.59 169.62L159.49 169.65L159.4 169.69L159.3 169.73L159.19 169.77L159.08 169.81L158.96 169.85L158.84 169.89L158.71 169.94L158.58 169.99L158.44 170.03L158.3 170.08L158.15 170.13L158 170.18L157.85 170.23L157.7 170.28L157.54 170.33L157.38 170.39L157.21 170.44L157.04 170.5L156.87 170.55L156.69 170.6L156.52 170.66L156.34 170.71L156.15 170.78L155.97 170.83L155.79 170.89L155.6 170.95L155.23 171.06L154.89 171.16L154.55 171.25L154.24 171.34L153.95 171.43L153.67 171.52L153.4 171.6L153.15 171.68L152.91 171.76L152.69 171.84L152.47 171.91L152.27 171.99L152.07 172.07L151.88 172.14L151.7 172.23L151.53 172.31L151.36 172.39L151.2 172.49L151.04 172.58L150.88 172.68L150.72 172.78L150.57 172.89L150.41 173.01L150.26 173.13L150.1 173.26L149.94 173.4L149.78 173.55L149.61 173.71L149.43 173.88L149.25 174.06L149.07 174.25L148.87 174.46L148.66 174.68L148.45 174.91L148.22 175.15L147.98 175.41L147.73 175.68L147.47 175.97L147.19 176.28L146.89 176.6L146.75 176.74L146.61 176.89L146.47 177.02L146.32 177.17L146.17 177.3L146.01 177.44L145.85 177.58L145.69 177.71L145.52 177.85L145.36 177.99L145.18 178.12L145 178.25L144.82 178.38L144.64 178.51L144.46 178.64L144.27 178.76L144.08 178.88L143.89 179.01L143.69 179.13L143.5 179.25L143.3 179.36L143.1 179.48L142.89 179.59L142.69 179.7L142.48 179.81L142.27 179.91L142.06 180.01L141.85 180.12L141.63 180.22L141.43 180.31L141.21 180.4L140.99 180.49L140.78 180.58L140.56 180.66L140.35 180.74L140.12 180.83L139.91 180.9L139.69 180.97L139.47 181.05L139.25 181.11L139.1 181.16L138.96 181.2L138.83 181.24L138.7 181.28L138.57 181.32L138.45 181.36L138.34 181.4L138.24 181.44L138.14 181.48L138.05 181.52L137.96 181.57L137.88 181.61L137.8 181.65L137.73 181.7L137.67 181.75L137.6 181.8L137.54 181.85L137.49 181.91L137.44 181.97L137.39 182.03L137.36 182.09L137.31 182.16L137.28 182.24L137.25 182.31L137.22 182.39L137.2 182.48L137.18 182.56L137.16 182.66L137.14 182.76L137.13 182.87L137.11 182.98L137.1 183.1L137.1 183.22L137.09 183.35L137.08 183.49L137.08 183.63L137.08 183.78L137.08 183.95L137.08 184.11L137.08 184.28L137.08 184.43L137.08 184.57L137.08 184.71L137.08 184.84L137.08 184.95L137.08 185.07L137.08 185.18L137.09 185.29L137.09 185.38L137.1 185.48L137.1 185.57L137.11 185.66L137.12 185.74L137.13 185.81L137.14 185.89L137.16 185.96L137.17 186.02L137.18 186.08L137.2 186.14L137.21 186.2L137.23 186.25L137.26 186.3L137.28 186.36L137.31 186.4L137.34 186.44L137.36 186.49L137.39 186.53L137.42 186.57L137.46 186.61L137.5 186.64L137.54 186.68L137.58 186.72L137.62 186.75L137.67 186.79L137.72 186.83L137.77 186.86L137.83 186.9L137.89 186.94L137.95 186.98L138.01 187.02L138.05 187.04L138.08 187.06L138.13 187.09L138.16 187.11L138.21 187.14L138.24 187.16L138.28 187.19L138.32 187.22L138.36 187.24L138.4 187.27L138.44 187.3L138.48 187.33L138.52 187.36L138.55 187.39L138.6 187.42L138.63 187.45L138.67 187.48L138.71 187.51L138.75 187.55L138.78 187.58L138.82 187.61L138.85 187.64L138.89 187.67L138.92 187.7L138.96 187.74L138.99 187.76L139.02 187.8L139.06 187.83L139.09 187.86L139.11 187.89L139.14 187.92L139.17 187.95L139.2 187.98L139.22 188L139.24 188.03L139.27 188.06L139.29 188.09L139.32 188.11L139.33 188.13L139.35 188.16L139.38 188.2L139.41 188.23L139.44 188.26L139.47 188.3L139.49 188.33L139.52 188.36L139.54 188.39L139.56 188.41L139.59 188.44L139.61 188.46L139.63 188.48L139.65 188.49L139.68 188.51L139.69 188.52L139.71 188.54L139.73 188.54L139.76 188.56L139.77 188.57L139.79 188.57L139.81 188.57L139.83 188.58L139.84 188.58L139.86 188.58L139.88 188.57L139.9 188.57L139.91 188.57L139.94 188.56L139.95 188.55L139.97 188.54L139.99 188.52L140.01 188.51L140.02 188.5L140.04 188.48L140.06 188.46L140.09 188.44L140.1 188.42L140.12 188.4L140.14 188.37L140.17 188.35L140.19 188.32L140.22 188.29L140.24 188.26L140.27 188.24L140.3 188.21L140.33 188.19L140.37 188.17L140.4 188.15L140.45 188.14L140.49 188.13L140.53 188.11L140.58 188.11L140.64 188.1L140.7 188.1L140.76 188.1L140.83 188.1L140.9 188.1L140.97 188.11L141.05 188.12L141.14 188.13L141.23 188.15L141.33 188.16L141.43 188.18L141.54 188.2L141.66 188.23L141.79 188.26L141.92 188.28L142.05 188.32L142.2 188.35L142.35 188.39L142.51 188.44L142.68 188.48L142.86 188.53L143.05 188.58L143.24 188.63L143.44 188.69L143.66 188.75L143.88 188.81L144.11 188.88L144.36 188.95L144.61 189.02L144.78 189.07L144.95 189.12L145.14 189.17L145.34 189.23L145.53 189.28L145.73 189.34L145.95 189.4L146.16 189.45L146.38 189.52L146.6 189.58L146.83 189.64L147.07 189.7L147.31 189.76L147.55 189.82L147.8 189.89L148.05 189.95L148.3 190.02L148.56 190.08L148.81 190.15L149.07 190.21L149.33 190.28L149.59 190.34L149.85 190.4L150.12 190.47L150.38 190.53L150.64 190.59L150.91 190.66L151.17 190.72L151.43 190.78L151.69 190.84L151.95 190.9L152.21 190.96L152.46 191.02L152.72 191.08L152.96 191.13L153.21 191.19L153.45 191.25L153.69 191.3L153.93 191.35L154.16 191.4L154.39 191.45L154.61 191.49L154.84 191.54L155.07 191.6L155.29 191.64L155.51 191.69L155.73 191.74L155.94 191.79L156.16 191.84L156.38 191.88L156.58 191.93L156.79 191.98L157 192.03L157.19 192.08L157.39 192.12L157.58 192.17L157.77 192.21L157.95 192.26L158.13 192.3L158.31 192.35L158.48 192.39L158.64 192.43L158.8 192.47L158.96 192.51L159.11 192.55L159.25 192.59L159.39 192.62L159.52 192.66L159.65 192.69L159.76 192.73L159.87 192.75L159.98 192.78L160.07 192.81L160.16 192.83L160.24 192.86L160.31 192.88L160.38 192.9L160.44 192.92L160.48 192.94L160.52 192.96L160.56 192.98L160.6 193L160.63 193.02L160.67 193.04L160.71 193.07L160.75 193.09L160.78 193.12L160.81 193.14L160.85 193.18L160.88 193.2L160.92 193.23L160.96 193.27L160.98 193.3L161.02 193.33L161.05 193.37L161.09 193.4L161.11 193.44L161.14 193.47L161.18 193.51L161.21 193.55L161.24 193.59L161.27 193.63L161.29 193.67L161.32 193.71L161.34 193.75L161.37 193.79L161.4 193.84L161.42 193.88L161.45 193.92L161.47 193.97L161.5 194.02L161.52 194.07L161.54 194.11L161.55 194.16L161.58 194.2L161.6 194.25L161.61 194.3L161.63 194.35L161.65 194.4L161.66 194.45L161.68 194.5L161.69 194.56L161.71 194.63L161.73 194.7L161.76 194.78L161.78 194.88L161.82 194.98L161.85 195.09L161.88 195.21L161.92 195.33L161.96 195.46L162 195.6L162.04 195.74L162.09 195.89L162.14 196.04L162.19 196.21L162.24 196.38L162.29 196.55L162.35 196.73L162.4 196.91L162.45 197.1L162.52 197.3L162.58 197.49L162.63 197.69L162.7 197.9L162.76 198.1L162.83 198.32L162.89 198.53L162.96 198.75L163.03 198.97L163.09 199.19L163.17 199.42L163.24 199.65L163.3 199.88L163.38 200.11L163.45 200.34L163.52 200.57L163.59 200.81L163.66 201.05L163.74 201.28L164.15 202.62L164.56 203.95L164.97 205.27L165.37 206.57L165.77 207.87L166.16 209.16L166.55 210.44L166.93 211.71L167.31 212.96L167.68 214.2L168.05 215.43L168.42 216.66L168.78 217.86L169.13 219.06L169.47 220.25L169.82 221.42L170.16 222.58L170.5 223.73L170.82 224.87L171.15 226L171.46 227.11L171.78 228.21L172.09 229.29L172.39 230.36L172.69 231.42L172.97 232.46L173.26 233.5L173.54 234.52L173.82 235.52L174.09 236.51L174.35 237.49L174.61 238.44L174.86 239.39L175.11 240.32L175.35 241.24L175.59 242.14L175.82 243.03L176.04 243.9L176.26 244.75L176.47 245.59L176.6 246.11L176.73 246.61L176.86 247.12L176.98 247.62L177.11 248.11L177.23 248.6L177.35 249.08L177.48 249.56L177.59 250.02L177.71 250.48L177.82 250.93L177.94 251.38L178.04 251.81L178.15 252.22L178.25 252.64L178.35 253.04L178.46 253.44L178.56 253.81L178.65 254.18L178.74 254.54L178.82 254.88L178.91 255.21L178.99 255.53L179.07 255.83L179.14 256.12L179.21 256.39L179.28 256.65L179.34 256.9L179.4 257.12L179.46 257.34L179.51 257.53L179.55 257.7L179.59 257.86L179.63 258.01L179.66 258.13L179.69 258.23L179.72 258.32L179.73 258.38L179.74 258.43L179.75 258.46L179.76 258.47L179.77 258.48L179.78 258.48L179.79 258.46L179.8 258.44L179.82 258.4L179.83 258.35L179.84 258.29L179.86 258.21L179.87 258.13L179.9 258.03L179.92 257.91L179.94 257.78L179.96 257.64L179.98 257.48L180.01 257.31L180.04 257.12L180.07 256.92L180.1 256.7L180.13 256.47L180.16 256.21L180.2 255.95L180.23 255.67L180.27 255.36L180.31 255.04L180.36 254.71L180.4 254.35L180.44 253.98L180.49 253.59L180.54 253.18L180.59 252.75L180.65 252.3L180.7 251.83L180.76 251.34L180.82 250.84L180.89 250.31L180.95 249.75L181.02 249.18L181.08 248.59L181.16 247.98L181.21 247.59L181.25 247.2L181.3 246.82L181.35 246.44L181.4 246.07L181.45 245.7L181.51 245.33L181.56 244.96L181.62 244.6L181.67 244.25L181.73 243.89L181.79 243.54L181.85 243.19L181.91 242.85L181.98 242.51L182.03 242.17L182.1 241.84L182.16 241.51L182.24 241.18L182.3 240.86L182.37 240.54L182.44 240.22L182.51 239.92L182.58 239.61L182.66 239.31L182.73 239.01L182.8 238.71L182.88 238.42L182.96 238.14L183.04 237.85L183.11 237.58L183.2 237.3L183.28 237.03L183.36 236.76L183.45 236.5L183.52 236.25L183.61 235.99L183.7 235.75L183.78 235.5L183.87 235.27L184.01 234.91L184.15 234.55L184.31 234.17L184.48 233.79L184.65 233.4L184.83 233L185.02 232.59L185.22 232.18L185.42 231.76L185.62 231.34L185.84 230.92L186.05 230.49L186.27 230.06L186.49 229.64L186.71 229.22L186.95 228.8L187.18 228.38L187.4 227.97L187.63 227.57L187.86 227.17L188.08 226.78L188.31 226.4L188.53 226.03L188.75 225.66L188.97 225.32L189.18 224.99L189.39 224.66L189.59 224.36L189.78 224.08L189.97 223.8L190.15 223.56L190.32 223.32L190.49 223.11L190.64 222.93L190.78 222.76L190.92 222.62L191.04 222.5L191.16 222.41L191.25 222.34L191.35 222.31L191.37 222.3L191.39 222.3L191.42 222.3L191.46 222.3L191.5 222.3L191.55 222.31L191.59 222.32L191.65 222.32L191.71 222.33L191.76 222.34L191.83 222.36L191.89 222.37L191.96 222.39L192.04 222.4L192.12 222.42L192.2 222.44L192.27 222.46L192.36 222.48L192.45 222.5L192.54 222.53L192.63 222.56L192.73 222.58L192.82 222.61L192.92 222.64L193.02 222.67L193.13 222.7L193.23 222.73L193.34 222.76L193.45 222.8L193.56 222.84L193.66 222.87L193.78 222.91L193.89 222.95L194 222.98L194.12 223.02L194.23 223.06L194.35 223.1L194.46 223.15L194.58 223.19L194.69 223.23L195.05 223.36L195.45 223.49L195.86 223.62L196.3 223.76L196.75 223.9L197.23 224.03L197.73 224.17L198.23 224.31L198.75 224.45L199.28 224.59L199.82 224.73L200.38 224.86L200.93 224.99L201.49 225.12L202.05 225.25L202.62 225.38L203.18 225.51L203.75 225.63L204.31 225.75L204.86 225.85L205.4 225.96L205.94 226.07L206.46 226.17L206.98 226.26L207.48 226.35L207.95 226.43L208.42 226.5L208.86 226.57L209.28 226.63L209.68 226.68L210.05 226.73L210.4 226.76L210.72 226.8L211.01 226.81L211.26 226.83L211.49 226.83L211.67 226.81L211.83 226.79L211.94 226.76L212.01 226.72L212.02 226.72L212.03 226.71L212.03 226.7L212.04 226.7L212.04 226.69L212.04 226.68L212.04 226.68L212.04 226.67L212.04 226.66L212.03 226.66L212.03 226.65L212.02 226.64L212.01 226.63L212.01 226.63L211.99 226.62L211.98 226.61L211.97 226.61L211.96 226.6L211.94 226.59L211.93 226.59L211.91 226.59L211.89 226.58L211.87 226.57L211.85 226.57L211.83 226.57L211.8 226.57L211.78 226.56L211.75 226.55L211.73 226.55L211.7 226.55L211.68 226.55L211.65 226.55L211.62 226.54L211.6 226.54L211.57 226.54L211.54 226.53L211.5 226.53L211.47 226.53L211.44 226.53L211.41 226.53L211.37 226.53L211.33 226.53L211.28 226.53L211.22 226.52L211.16 226.51L211.09 226.5L211.02 226.5L210.94 226.48L210.85 226.47L210.77 226.46L210.67 226.44L210.58 226.43L210.47 226.41L210.37 226.4L210.26 226.37L210.15 226.35L210.03 226.33L209.9 226.31L209.78 226.29L209.65 226.27L209.51 226.24L209.38 226.21L209.24 226.18L209.1 226.16L208.96 226.13L208.82 226.09L208.66 226.07L208.51 226.03L208.36 226.01L208.2 225.97L208.05 225.94L207.89 225.9L207.73 225.87L207.57 225.83L207.4 225.79L207.25 225.76L207.08 225.72L206.91 225.68L206.75 225.65L206.58 225.61L205.85 225.44L205.12 225.26L204.41 225.07L203.7 224.89L203.01 224.7L202.33 224.5L201.66 224.3L201 224.1L200.34 223.88L199.7 223.67L199.07 223.45L198.44 223.22L197.82 222.99L197.21 222.76L196.62 222.51L196.03 222.26L195.44 222.01L194.87 221.75L194.31 221.48L193.74 221.22L193.2 220.94L192.66 220.65L192.12 220.37L191.59 220.07L191.07 219.77L190.55 219.46L190.05 219.15L189.55 218.83L189.05 218.51L188.56 218.17L188.08 217.84L187.6 217.49L187.13 217.13L186.66 216.78L186.2 216.41L185.75 216.03L185.3 215.65L184.85 215.26L184.41 214.87L183.97 214.46L183.73 214.23L183.48 214L183.24 213.77L183.01 213.54L182.78 213.31L182.55 213.09L182.33 212.87L182.11 212.64L181.9 212.42L181.69 212.19L181.48 211.97L181.27 211.75L181.08 211.52L180.87 211.29L180.68 211.07L180.49 210.84L180.3 210.62L180.11 210.38L179.92 210.16L179.74 209.93L179.56 209.69L179.38 209.45L179.2 209.21L179.03 208.97L178.85 208.72L178.68 208.48L178.51 208.22L178.33 207.97L178.16 207.71L177.99 207.44L177.82 207.18L177.65 206.9L177.48 206.63L177.3 206.35L177.14 206.06L176.96 205.77L176.79 205.47L176.62 205.17L176.45 204.86L176.27 204.55L176.14 204.32L176.01 204.11L175.9 203.91L175.78 203.72L175.68 203.54L175.57 203.37L175.47 203.21L175.38 203.06L175.29 202.93L175.21 202.81L175.14 202.69L175.06 202.6L174.99 202.51L174.93 202.43L174.88 202.37L174.83 202.31L174.78 202.27L174.74 202.24L174.7 202.22L174.67 202.21L174.65 202.21L174.64 202.23L174.62 202.26L174.62 202.29L174.62 202.34L174.62 202.4L174.63 202.48L174.65 202.56L174.67 202.65L174.7 202.76L174.72 202.89L174.77 203.02L174.81 203.16L174.86 203.31L174.92 203.48L174.98 203.66L175.05 203.85L175.13 204.05L175.21 204.26L175.29 204.49L175.34 204.6L175.38 204.71L175.42 204.8L175.46 204.9L175.5 204.99L175.53 205.09L175.56 205.17L175.59 205.25L175.62 205.34L175.65 205.41L175.67 205.48L175.69 205.55L175.71 205.62L175.73 205.68L175.74 205.74L175.75 205.79L175.77 205.85L175.78 205.9L175.79 205.95L175.8 206L175.8 206.04L175.8 206.08L175.8 206.12L175.8 206.16L175.8 206.2L175.8 206.23L175.79 206.26L175.78 206.29L175.78 206.32L175.76 206.35L175.75 206.37L175.73 206.4L175.72 206.42L175.7 206.44L175.68 206.46L175.66 206.48L175.64 206.5L175.62 206.52L175.59 206.53L175.57 206.55L175.46 206.61L175.35 206.66L175.24 206.7L175.11 206.74L174.99 206.77L174.85 206.79L174.72 206.81L174.57 206.82L174.42 206.83L174.26 206.83L174.11 206.82L173.94 206.81L173.77 206.79L173.59 206.77L173.42 206.74L173.24 206.7L173.06 206.66L172.87 206.62L172.69 206.57L172.49 206.51L172.31 206.45L172.11 206.39L171.91 206.31L171.71 206.24L171.51 206.16L171.32 206.07L171.12 205.99L170.92 205.89L170.72 205.79L170.52 205.68L170.32 205.57L170.12 205.47L169.92 205.35L169.73 205.23L169.53 205.1L169.35 204.97L169.15 204.84L168.96 204.71L168.78 204.57L168.6 204.43L168.41 204.27L168.23 204.11L168.06 203.94L167.88 203.76L167.72 203.57L167.55 203.37L167.4 203.17L167.25 202.96L167.11 202.74L166.97 202.52L166.84 202.29L166.71 202.06L166.59 201.82L166.47 201.57L166.36 201.33L166.26 201.07L166.17 200.82L166.08 200.56L166 200.3L165.92 200.04L165.86 199.77L165.8 199.51L165.74 199.24L165.69 198.97L165.66 198.71L165.62 198.44L165.6 198.17L165.58 197.9L165.57 197.64L165.57 197.38L165.58 197.12L165.59 196.86L165.62 196.61L165.65 196.36L165.69 196.11L165.74 195.87L165.8 195.63L165.86 195.41L165.93 195.17L166.02 194.96L166.06 194.85L166.11 194.75L166.16 194.64L166.23 194.53L166.29 194.42L166.36 194.3L166.44 194.18L166.52 194.06L166.61 193.94L166.7 193.82L166.79 193.7L166.88 193.57L166.98 193.45L167.08 193.33L167.18 193.2L167.29 193.09L167.39 192.96L167.5 192.85L167.61 192.73L167.72 192.62L167.83 192.51L167.93 192.4L168.04 192.29L168.16 192.18L168.27 192.09L168.37 191.99L168.47 191.9L168.57 191.82L168.68 191.74L168.78 191.66L168.88 191.59L168.96 191.53L169.06 191.47L169.14 191.42L169.22 191.38L169.3 191.34L169.37 191.31L169.45 191.29L169.51 191.27L169.57 191.27L169.63 191.27L169.69 191.26L169.74 191.25L169.79 191.23L169.83 191.2L169.86 191.17L169.89 191.12L169.91 191.07L169.91 191.01L169.92 190.95L169.92 190.88L169.91 190.81L169.9 190.73L169.88 190.64L169.85 190.54L169.81 190.43L169.77 190.32L169.72 190.19L169.66 190.06L169.6 189.93L169.53 189.78L169.45 189.62L169.37 189.45L169.27 189.28L169.17 189.1L169.06 188.91L168.94 188.71L168.82 188.5L168.69 188.28L168.55 188.06L168.4 187.82L168.25 187.57L168.09 187.32L167.91 187.05L167.73 186.77L167.55 186.49L167.35 186.19L167.15 185.88L166.94 185.57L166.72 185.24L166.57 185.01L166.41 184.78L166.27 184.56L166.13 184.34L166 184.13L165.87 183.93L165.75 183.72L165.63 183.52L165.52 183.32L165.41 183.13L165.31 182.93L165.21 182.75L165.12 182.56L165.03 182.38L164.95 182.2L164.87 182.02L164.79 181.83L164.72 181.65L164.66 181.48L164.59 181.3L164.53 181.12L164.48 180.94L164.43 180.77L164.38 180.59L164.34 180.41L164.3 180.23L164.26 180.05L164.23 179.86L164.2 179.68L164.17 179.49L164.15 179.31L164.13 179.12L164.12 178.92L164.1 178.72L164.09 178.52L164.08 178.32L164.07 178.1L164.07 177.89L164.07 177.68L164.07 177.45L164.07 177.29L164.07 177.13L164.08 176.97L164.08 176.81L164.09 176.66L164.1 176.51L164.1 176.37L164.11 176.22L164.12 176.07L164.14 175.92L164.15 175.78L164.17 175.63L164.2 175.48L164.22 175.33L164.25 175.18L164.28 175.03L164.3 174.87L164.34 174.71L164.38 174.55L164.42 174.37L164.47 174.2L164.51 174.02L164.57 173.83L164.62 173.64L164.69 173.44L164.75 173.23L164.82 173.01L164.89 172.78L164.97 172.55L165.05 172.3L165.13 172.05L165.23 171.78L165.33 171.5L165.43 171.21L165.54 170.91L165.64 170.6L165.77 170.27L165.89 169.93L166.02 169.57L166.15 169.2L166.29 168.81L166.42 168.43L166.55 168.07L166.67 167.73L166.79 167.4L166.9 167.09L167 166.8L167.09 166.52L167.18 166.25L167.27 166.01L167.35 165.77L167.42 165.54L167.49 165.32L167.56 165.12L167.62 164.93L167.67 164.75L167.73 164.58L167.77 164.41L167.81 164.26L167.85 164.11L167.88 163.97L167.91 163.84L167.93 163.71L167.96 163.6L167.97 163.48L167.98 163.37L167.99 163.27L168 163.17L168 163.07L168 162.98L168 162.88L167.99 162.79L167.98 162.7L167.98 162.61L167.96 162.52L167.94 162.43L167.93 162.34L167.91 162.24L167.88 162.15L167.86 162.05L167.8 161.83L167.76 161.61L167.72 161.4L167.68 161.18L167.65 160.96L167.63 160.75L167.62 160.54L167.6 160.33L167.6 160.12L167.6 159.91L167.61 159.71L167.62 159.49L167.64 159.29L167.67 159.08L167.7 158.88L167.74 158.67L167.78 158.46L167.83 158.25L167.89 158.05L167.96 157.84L168.03 157.63L168.1 157.43L168.19 157.21L168.28 157.01L168.37 156.8L168.47 156.59L168.59 156.37L168.7 156.16L168.83 155.94L168.96 155.72L169.09 155.5L169.24 155.29L169.39 155.07L169.55 154.84L169.71 154.61L169.89 154.38L170.06 154.15L170.25 153.92L170.44 153.68L170.64 153.44L170.71 153.37L170.77 153.29L170.84 153.21L170.92 153.12L170.99 153.03L171.07 152.93L171.15 152.83L171.23 152.73L171.32 152.62L171.4 152.51L171.49 152.4L171.58 152.28L171.68 152.16L171.77 152.04L171.87 151.91L171.97 151.78L172.07 151.66L172.17 151.52L172.27 151.39L172.37 151.26L172.47 151.12L172.58 150.98L172.68 150.84L172.79 150.7L172.89 150.56L173 150.41L173.1 150.27L173.21 150.13L173.31 149.98L173.41 149.84L173.52 149.7L173.62 149.55L173.72 149.41L173.83 149.26L173.93 149.12L174.03 148.98L174.13 148.84L174.23 148.7L174.33 148.56L174.42 148.42L174.71 148.02L175.02 147.6L175.34 147.18L175.68 146.75L176.03 146.32L176.39 145.88L176.77 145.43L177.16 144.99L177.56 144.54L177.97 144.08L178.4 143.63L178.83 143.18L179.27 142.73L179.72 142.27L180.17 141.82L180.63 141.38L181.1 140.93L181.57 140.49L182.04 140.05L182.52 139.61L182.99 139.19L183.47 138.76L183.95 138.35L184.43 137.95L184.91 137.54L185.39 137.16L185.86 136.78L186.33 136.41L186.79 136.06L187.26 135.72L187.71 135.38L188.16 135.07L188.6 134.77L189.03 134.48L189.46 134.2L189.87 133.95L190.27 133.71L190.66 133.49L191.04 133.29L191.41 133.11L192.03 132.82L192.66 132.54L193.29 132.27L193.94 131.99L194.59 131.73L195.25 131.48L195.91 131.24L196.59 131L197.26 130.77L197.95 130.54L198.64 130.33L199.34 130.12L200.04 129.92L200.75 129.72L201.46 129.54L202.18 129.36L202.9 129.2L203.62 129.03L204.36 128.88L205.09 128.73L205.83 128.59L206.57 128.46L207.31 128.35L208.06 128.23L208.8 128.13L209.56 128.03L210.31 127.95L211.06 127.87L211.82 127.8L212.57 127.74L213.33 127.68L214.09 127.64L214.85 127.61L215.61 127.58L216.37 127.57L217.13 127.56L217.88 127.56L218.64 127.57L219.39 127.59L220.15 127.62L220.71 127.64L221.25 127.67L221.78 127.7L222.3 127.74L222.81 127.77L223.3 127.81L223.79 127.86L224.27 127.91L224.75 127.96L225.21 128.02L225.66 128.08L226.11 128.15L226.55 128.22L226.98 128.29L227.41 128.38L227.83 128.46L228.26 128.55L228.67 128.64L229.09 128.74L229.49 128.85L229.9 128.96L230.3 129.07L230.71 129.2L231.11 129.32L231.51 129.46L231.91 129.59L232.31 129.74L232.72 129.89L233.12 130.06L233.52 130.22L233.93 130.39L234.34 130.58L234.76 130.76L235.18 130.95L235.6 131.16L236.03 131.37L236.47 131.58L236.91 131.81L237.35 132.04L237.81 132.29L237.95 132.36L238.08 132.43L238.23 132.51L238.37 132.58L238.52 132.65L238.67 132.73L238.82 132.8L238.97 132.88L239.13 132.95L239.28 133.03L239.44 133.1L239.59 133.18L239.75 133.25L239.91 133.33L240.07 133.4L240.23 133.48L240.39 133.55L240.55 133.62L240.71 133.7L240.87 133.77L241.03 133.84L241.18 133.91L241.34 133.98L241.49 134.04L241.64 134.11L241.79 134.18L241.94 134.24L242.09 134.3L242.23 134.36L242.37 134.42L242.51 134.47L242.65 134.53L242.78 134.58L242.91 134.64L243.03 134.68L243.15 134.73L243.27 134.77L243.39 134.81L243.5 134.85L243.6 134.89L243.76 134.95L243.92 135.01L244.08 135.06L244.22 135.11L244.37 135.16L244.51 135.22L244.64 135.27L244.77 135.32L244.9 135.37L245.02 135.43L245.15 135.48L245.26 135.54L245.38 135.59L245.49 135.66L245.61 135.72L245.72 135.78L245.83 135.84L245.94 135.91L246.05 135.98L246.15 136.05L246.26 136.12L246.38 136.2L246.49 136.28L246.6 136.37L246.72 136.46L246.83 136.55L246.95 136.65L247.07 136.75L247.19 136.86L247.32 136.97L247.45 137.09L247.59 137.21L247.73 137.34L247.88 137.48L248.03 137.61L248.18 137.76L248.34 137.91L248.51 138.08L248.68 138.24L248.86 138.42L249.22 138.77L249.57 139.12L249.93 139.49L250.28 139.85L250.63 140.23L250.98 140.6L251.33 140.98L251.67 141.37L252.02 141.76L252.36 142.16L252.71 142.55L253.05 142.96L253.38 143.37L253.72 143.78L254.06 144.2L254.39 144.63L254.72 145.06L255.06 145.49L255.38 145.93L255.7 146.36L256.03 146.81L256.35 147.25L256.67 147.71L256.99 148.16L257.3 148.63L257.62 149.09L257.93 149.56L258.23 150.03L258.54 150.5L258.84 150.98L259.15 151.47L259.44 151.95L259.74 152.44L260.03 152.93L260.32 153.42L260.61 153.92L260.89 154.43L261.17 154.94L261.45 155.44L261.72 155.95L261.84 156.17L261.95 156.37L262.05 156.57L262.15 156.77L262.24 156.96L262.34 157.15L262.42 157.34L262.5 157.52L262.58 157.71L262.66 157.89L262.73 158.07L262.8 158.25L262.87 158.44L262.93 158.63L262.99 158.82L263.05 159.02L263.11 159.23L263.16 159.43L263.21 159.64L263.27 159.87L263.32 160.1L263.37 160.33L263.41 160.58L263.46 160.84L263.5 161.11L263.55 161.39L263.59 161.68L263.63 161.99L263.68 162.31L263.72 162.64L263.77 163L263.81 163.36L263.86 163.74L263.9 164.15L263.95 164.57L264 165.01L264.04 165.47L264.09 165.95L264.15 166.45L264.2 166.97L264.22 167.2L264.24 167.42L264.27 167.66L264.29 167.89L264.32 168.12L264.34 168.36L264.36 168.61L264.39 168.85L264.42 169.09L264.44 169.34L264.47 169.59L264.5 169.83L264.53 170.08L264.55 170.32L264.58 170.57L264.6 170.82L264.63 171.06L264.66 171.31L264.69 171.56L264.72 171.8L264.75 172.03L264.78 172.27L264.81 172.51L264.84 172.74L264.86 172.97L264.89 173.19L264.92 173.41L264.95 173.63L264.98 173.84L265 174.05L265.03 174.25L265.06 174.45L265.08 174.64L265.11 174.83L265.13 175.01L265.15 175.18L265.18 175.35L265.2 175.51L265.22 175.66L265.24 175.8L265.28 176.07L265.32 176.32L265.35 176.57L265.38 176.81L265.41 177.04L265.44 177.26L265.47 177.47L265.49 177.67L265.5 177.87L265.53 178.06L265.54 178.25L265.55 178.43L265.56 178.6L265.57 178.77L265.57 178.94L265.57 179.1L265.57 179.25L265.56 179.41L265.56 179.56L265.55 179.71L265.53 179.86L265.52 180.01L265.5 180.15L265.48 180.3L265.45 180.44L265.42 180.59L265.39 180.74L265.35 180.89L265.32 181.04L265.27 181.19L265.23 181.35L265.18 181.5L265.13 181.67L265.07 181.84L265.02 182.01L264.96 182.19L264.89 182.37L264.82 182.56L264.75 182.75L264.67 182.95L264.65 183.02L264.62 183.09L264.6 183.17L264.58 183.24L264.55 183.32L264.53 183.4L264.5 183.48L264.47 183.56L264.45 183.65L264.43 183.73L264.41 183.82L264.39 183.91L264.37 184L264.35 184.09L264.32 184.18L264.3 184.27L264.28 184.36L264.27 184.45L264.24 184.54L264.23 184.64L264.21 184.73L264.19 184.82L264.18 184.91L264.17 185L264.15 185.09L264.14 185.18L264.12 185.27L264.11 185.36L264.1 185.45L264.09 185.53L264.08 185.62L264.07 185.71L264.06 185.79L264.06 185.87L264.05 185.94L264.04 186.03L264.04 186.1L264.04 186.18L264.04 186.25L264.04 186.32L264.04 186.39L264.04 186.46L264.03 186.53L264.03 186.61L264.03 186.68L264.02 186.77L264.01 186.84L264.01 186.92L264 187.01L263.99 187.09L263.99 187.17L263.98 187.25L263.96 187.34L263.96 187.42L263.94 187.51L263.93 187.59L263.92 187.68L263.91 187.77L263.89 187.85L263.88 187.94L263.86 188.03L263.85 188.11L263.83 188.2L263.82 188.28L263.81 188.37L263.78 188.46L263.77 188.54L263.75 188.62L263.73 188.7L263.71 188.78L263.69 188.86L263.67 188.93L263.65 189.01L263.63 189.09L263.61 189.16L263.59 189.23L263.57 189.3L263.55 189.37L263.52 189.43L263.5 189.5L262.96 191.02L264.14 192.16L264.3 192.33L264.47 192.5L264.62 192.67L264.76 192.83L264.91 193.01L265.04 193.17L265.17 193.34L265.29 193.51L265.4 193.68L265.51 193.84L265.61 194.01L265.71 194.18L265.8 194.35L265.88 194.52L265.96 194.7L266.02 194.87L266.09 195.04L266.15 195.22L266.2 195.4L266.24 195.58L266.28 195.76L266.31 195.94L266.34 196.13L266.36 196.31L266.38 196.5L266.38 196.69L266.39 196.89L266.39 197.08L266.38 197.28L266.36 197.48L266.35 197.68L266.32 197.89L266.29 198.1L266.25 198.31L266.21 198.53L266.16 198.75L266.1 198.97L266.04 199.2L265.98 199.42L265.92 199.66L265.84 199.88L265.76 200.1L265.68 200.32L265.58 200.53L265.5 200.74L265.4 200.95L265.3 201.15L265.2 201.35L265.09 201.54L264.97 201.73L264.85 201.92L264.73 202.1L264.6 202.28L264.47 202.45L264.33 202.63L264.19 202.8L264.04 202.97L263.89 203.13L263.74 203.29L263.58 203.44L263.42 203.6L263.24 203.75L263.07 203.89L262.89 204.04L262.7 204.17L262.52 204.31L262.32 204.45L262.12 204.58L261.92 204.71L261.7 204.83L261.49 204.95L261.27 205.07L261.04 205.18L260.81 205.29L260.58 205.4L260.33 205.51L260.09 205.62L259.84 205.72L259.58 205.82L259.31 205.92L259.15 205.98L258.99 206.04L258.83 206.09L258.68 206.16L258.54 206.21L258.4 206.27L258.27 206.33L258.14 206.38L258.02 206.44L257.9 206.5L257.78 206.55L257.67 206.61L257.56 206.68L257.45 206.74L257.35 206.81L257.25 206.87L257.15 206.94L257.06 207.02L256.96 207.09L256.87 207.17L256.77 207.25L256.68 207.34L256.59 207.43L256.5 207.52L256.4 207.63L256.3 207.73L256.21 207.84L256.11 207.96L256.01 208.08L255.91 208.2L255.8 208.34L255.7 208.48L255.6 208.62L255.48 208.78L255.37 208.93L255.24 209.11L255.12 209.28L254.99 209.46L254.86 209.65L254.72 209.86L254.58 210.06L254.43 210.27L254.26 210.49L254.09 210.71L253.91 210.94L253.72 211.18L253.51 211.42L253.3 211.66L253.08 211.91L252.86 212.16L252.62 212.42L252.38 212.68L252.13 212.94L251.88 213.2L251.63 213.46L251.36 213.73L251.09 214L250.82 214.26L250.55 214.53L250.27 214.8L249.99 215.06L249.71 215.33L249.42 215.59L249.13 215.85L248.84 216.11L248.55 216.36L248.26 216.62L247.98 216.86L247.69 217.11L247.4 217.35L247.12 217.58L246.83 217.81L246.56 218.03L246.28 218.25L246 218.46L245.74 218.66L245.47 218.86L245.21 219.04L244.96 219.22L244.71 219.38L244.61 219.45L244.51 219.51L244.41 219.58L244.31 219.64L244.22 219.71L244.12 219.77L244.02 219.83L243.94 219.9L243.84 219.96L243.75 220.03L243.66 220.09L243.58 220.16L243.49 220.22L243.41 220.28L243.32 220.33L243.25 220.39L243.17 220.46L243.09 220.51L243.02 220.57L242.95 220.62L242.89 220.68L242.82 220.73L242.76 220.78L242.69 220.83L242.63 220.88L242.58 220.93L242.53 220.98L242.47 221.02L242.43 221.06L242.38 221.1L242.35 221.14L242.3 221.17L242.27 221.21L242.24 221.24L242.21 221.27L242.19 221.3L242.17 221.33L242.15 221.35L242.14 221.37L242.13 221.39L242.12 221.4L242.11 221.42L242.11 221.44L242.11 221.46L242.12 221.49L242.13 221.52L242.14 221.54L242.14 221.58L242.16 221.61L242.17 221.65L242.19 221.69L242.21 221.73L242.23 221.77L242.25 221.81L242.27 221.86L242.3 221.91L242.33 221.95L242.36 222L242.4 222.06L242.43 222.11L242.47 222.16L242.5 222.22L242.54 222.28L242.58 222.33L242.63 222.39L242.67 222.45L242.71 222.51L242.76 222.57L242.81 222.64L242.86 222.7L242.91 222.76L242.96 222.83L243.02 222.89L243.08 222.96L243.13 223.02L243.19 223.09L243.25 223.16L243.31 223.22L243.37 223.29L243.43 223.36L243.66 223.6L243.87 223.84L244.09 224.09L244.3 224.34L244.51 224.6L244.71 224.86L244.9 225.12L245.1 225.4L245.3 225.68L245.49 225.96L245.67 226.25L245.86 226.55L246.04 226.85L246.22 227.16L246.4 227.48L246.57 227.8L246.75 228.14L246.92 228.48L247.09 228.83L247.26 229.19L247.42 229.56L247.59 229.94L247.75 230.33L247.92 230.73L248.08 231.14L248.24 231.55L248.4 231.99L248.57 232.42L248.73 232.88L248.88 233.35L249.04 233.82L249.2 234.31L249.37 234.81L249.52 235.32L249.68 235.85L249.85 236.39L250.01 236.95L250.17 237.51L250.34 238.1L250.5 238.7L250.56 238.92L250.62 239.14L250.68 239.35L250.73 239.56L250.79 239.76L250.85 239.96L250.9 240.15L250.96 240.34L251.01 240.52L251.06 240.7L251.11 240.87L251.16 241.03L251.2 241.18L251.25 241.33L251.3 241.48L251.34 241.61L251.35 241.65L248.75 243.52L244.47 246.37L240.07 249.06L235.55 251.59L230.92 253.96L226.19 256.17L221.35 258.2L216.42 260.07L211.39 261.74L206.28 263.25L201.09 264.56L195.81 265.68L190.46 266.61L185.04 267.34L179.55 267.87L174 268.18L168.39 268.29L162.79 268.18L157.24 267.87L151.75 267.34L146.33 266.61L140.98 265.68L135.7 264.56L130.51 263.25L125.4 261.74L120.37 260.07L115.44 258.2L110.6 256.17L105.87 253.96L101.24 251.59L96.72 249.06L92.32 246.37L88.04 243.52L83.87 240.53L79.84 237.39L75.94 234.11L72.17 230.7L68.55 227.15L65.07 223.47L61.74 219.67L58.57 215.75L55.55 211.71L52.69 207.56L50 203.3L47.49 198.94L45.15 194.48L42.99 189.91L41.02 185.27L39.23 180.53L37.64 175.71L36.25 170.82L35.05 165.84L34.08 160.8L33.3 155.69L32.74 150.52L32.4 145.28L32.29 140L32.4 134.72L32.74 129.48L33.3 124.31L34.08 119.2L35.05 114.16L36.25 109.18L37.64 104.29L39.23 99.47L41.02 94.73L42.99 90.09L45.15 85.52L47.49 81.06L50 76.7L52.69 72.44L55.55 68.29L58.57 64.25L61.74 60.33L65.07 56.53L68.55 52.85L72.17 49.3L75.94 45.89L79.84 42.61L83.87 39.47L88.04 36.48L92.32 33.63L96.72 30.94L101.24 28.41L105.87 26.04L110.6 23.83L115.44 21.8L120.37 19.93L125.4 18.26L130.51 16.75L135.7 15.44L140.98 14.32L146.33 13.39L151.75 12.66L157.24 12.13L162.79 11.82L168.39 11.71L174 11.82L179.55 12.13L179.55 12.13L185.04 12.66L190.46 13.39L195.81 14.32ZM140.14 189.12L140.16 189.16L140.19 189.22L140.22 189.27L140.25 189.34L140.3 189.41L140.35 189.49L140.4 189.58L140.45 189.67L140.52 189.78L140.58 189.89L140.66 190L140.73 190.13L140.81 190.26L140.91 190.4L141 190.54L141.09 190.7L141.2 190.86L141.3 191.02L141.42 191.19L141.53 191.37L141.66 191.56L141.78 191.75L141.91 191.95L142.05 192.15L142.18 192.36L142.33 192.58L142.47 192.8L142.62 193.03L142.78 193.27L142.94 193.51L143.1 193.75L143.27 194L143.43 194.26L143.72 194.68L144 195.11L144.28 195.56L144.57 196.02L144.88 196.51L145.18 197.01L145.49 197.52L145.8 198.06L146.12 198.6L146.44 199.15L146.76 199.72L147.09 200.29L147.42 200.88L147.75 201.48L148.09 202.09L148.42 202.7L148.76 203.32L149.09 203.95L149.43 204.59L149.76 205.23L150.1 205.88L150.43 206.53L150.77 207.18L151.1 207.83L151.42 208.48L151.75 209.14L152.07 209.8L152.39 210.45L152.71 211.1L153.02 211.75L153.33 212.4L153.63 213.05L153.93 213.69L154.22 214.33L154.5 214.96L154.78 215.58L155.06 216.19L155.32 216.8L155.58 217.4L155.84 217.99L155.94 218.24L156.04 218.48L156.14 218.72L156.23 218.94L156.33 219.17L156.41 219.39L156.5 219.6L156.58 219.81L156.65 220.01L156.72 220.2L156.79 220.39L156.86 220.58L156.92 220.76L156.98 220.94L157.03 221.11L157.08 221.27L157.13 221.43L157.18 221.59L157.22 221.74L157.25 221.88L157.29 222.02L157.33 222.17L157.36 222.3L157.38 222.43L157.4 222.56L157.42 222.68L157.43 222.8L157.45 222.91L157.46 223.03L157.46 223.14L157.47 223.24L157.47 223.35L157.46 223.45L157.46 223.55L157.46 223.64L157.44 223.73L157.43 223.83L157.41 223.92L157.4 224L157.38 224.09L157.36 224.12L157.34 224.16L157.31 224.21L157.28 224.26L157.24 224.32L157.19 224.39L157.13 224.46L157.07 224.54L157 224.62L156.92 224.71L156.84 224.8L156.74 224.9L156.65 225.01L156.54 225.12L156.43 225.23L156.33 225.34L156.2 225.46L156.08 225.59L155.95 225.72L155.81 225.85L155.67 225.99L155.53 226.13L155.38 226.27L155.22 226.42L155.07 226.57L154.91 226.72L154.74 226.88L154.57 227.04L154.4 227.2L154.22 227.36L154.04 227.52L153.86 227.69L153.68 227.86L153.49 228.03L153.3 228.2L153.11 228.37L152.91 228.54L152.72 228.72L152.52 228.9L152.31 229.07L152.07 229.29L151.82 229.5L151.59 229.71L151.36 229.91L151.15 230.1L150.93 230.3L150.72 230.48L150.52 230.66L150.33 230.84L150.15 231L149.97 231.17L149.79 231.33L149.62 231.49L149.46 231.64L149.3 231.78L149.16 231.92L149.02 232.05L148.88 232.19L148.76 232.31L148.63 232.44L148.51 232.55L148.4 232.67L148.3 232.77L148.2 232.88L148.11 232.98L148.03 233.07L147.95 233.16L147.87 233.25L147.81 233.33L147.75 233.41L147.69 233.48L147.64 233.55L147.6 233.62L147.56 233.68L147.53 233.74L147.5 233.79L147.48 233.84L147.47 233.89L147.46 233.93L147.46 233.96L147.46 234.02L147.47 234.09L147.5 234.16L147.53 234.24L147.56 234.32L147.61 234.4L147.66 234.5L147.73 234.59L147.8 234.69L147.89 234.8L147.97 234.92L148.07 235.04L148.18 235.17L148.3 235.3L148.43 235.44L148.57 235.58L148.71 235.74L148.87 235.9L149.04 236.06L149.22 236.24L149.4 236.42L149.6 236.61L149.81 236.8L150.02 237.01L150.25 237.21L150.49 237.43L150.74 237.66L151 237.88L151.28 238.13L151.56 238.38L151.85 238.63L152.16 238.9L152.47 239.16L152.8 239.44L153.14 239.73L153.48 240.03L153.84 240.33L154.22 240.65L154.6 240.97L154.99 241.3L155.3 241.56L155.59 241.8L155.87 242.04L156.14 242.26L156.39 242.48L156.63 242.69L156.86 242.88L157.07 243.08L157.28 243.26L157.47 243.44L157.66 243.61L157.83 243.77L157.99 243.93L158.14 244.09L158.28 244.23L158.41 244.38L158.54 244.52L158.65 244.66L158.75 244.79L158.85 244.92L158.94 245.04L159.02 245.16L159.09 245.29L159.16 245.41L159.22 245.53L159.27 245.64L159.31 245.77L159.35 245.88L159.39 246L159.41 246.12L159.43 246.24L159.44 246.36L159.46 246.48L159.47 246.61L159.47 246.74L159.47 246.87L159.46 247L159.44 247.14L159.44 247.28L159.41 247.43L159.41 247.53L159.39 247.63L159.39 247.72L159.37 247.8L159.36 247.89L159.36 247.96L159.35 248.03L159.34 248.1L159.34 248.16L159.34 248.22L159.33 248.28L159.33 248.32L159.33 248.37L159.32 248.41L159.32 248.45L159.33 248.48L159.33 248.51L159.33 248.53L159.34 248.55L159.34 248.57L159.35 248.58L159.36 248.59L159.36 248.59L159.38 248.6L159.39 248.59L159.4 248.58L159.41 248.58L159.43 248.56L159.44 248.54L159.47 248.52L159.49 248.5L159.5 248.47L159.52 248.44L159.55 248.41L159.57 248.37L159.6 248.32L159.63 248.28L159.66 248.24L159.69 248.19L159.72 248.13L159.74 248.1L159.75 248.06L159.77 248.02L159.79 247.99L159.8 247.95L159.83 247.91L159.84 247.87L159.85 247.82L159.87 247.78L159.89 247.73L159.9 247.68L159.92 247.64L159.93 247.59L159.95 247.54L159.96 247.49L159.98 247.44L159.99 247.39L160.01 247.34L160.02 247.28L160.03 247.24L160.04 247.18L160.06 247.13L160.06 247.08L160.08 247.02L160.08 246.97L160.1 246.91L160.11 246.86L160.11 246.81L160.13 246.76L160.13 246.7L160.14 246.65L160.15 246.6L160.16 246.55L160.16 246.49L160.17 246.44L160.17 246.39L160.18 246.34L160.19 246.29L160.19 246.24L160.19 246.2L160.19 246.11L160.19 246.03L160.18 245.96L160.17 245.88L160.16 245.81L160.15 245.73L160.13 245.66L160.11 245.58L160.09 245.51L160.06 245.43L160.02 245.35L159.98 245.27L159.93 245.19L159.88 245.1L159.82 245.01L159.75 244.92L159.67 244.81L159.58 244.71L159.49 244.6L159.38 244.49L159.26 244.36L159.14 244.23L159 244.1L158.86 243.95L158.69 243.8L158.53 243.64L158.34 243.47L158.15 243.28L157.94 243.09L157.72 242.89L157.48 242.67L157.23 242.45L156.96 242.21L156.68 241.96L156.38 241.69L156.06 241.41L155.73 241.13L155.38 240.82L155.01 240.5L154.63 240.16L154.4 239.96L154.17 239.76L153.95 239.57L153.73 239.37L153.51 239.17L153.29 238.98L153.08 238.79L152.86 238.6L152.65 238.42L152.45 238.23L152.25 238.05L152.05 237.87L151.85 237.69L151.67 237.52L151.48 237.36L151.29 237.19L151.12 237.03L150.95 236.87L150.78 236.71L150.61 236.56L150.46 236.42L150.3 236.28L150.16 236.15L150.02 236.02L149.89 235.89L149.76 235.77L149.64 235.65L149.53 235.55L149.42 235.45L149.33 235.34L149.23 235.26L149.15 235.17L149.07 235.1L149 235.03L148.94 234.96L148.89 234.91L148.84 234.86L148.81 234.82L148.79 234.78L148.76 234.76L148.73 234.69L148.7 234.63L148.67 234.57L148.65 234.51L148.63 234.45L148.61 234.39L148.61 234.33L148.6 234.27L148.59 234.22L148.6 234.15L148.61 234.09L148.61 234.03L148.63 233.96L148.66 233.9L148.68 233.83L148.72 233.76L148.76 233.69L148.81 233.62L148.86 233.54L148.92 233.46L148.99 233.37L149.06 233.29L149.14 233.2L149.23 233.11L149.33 233L149.43 232.9L149.54 232.79L149.66 232.68L149.79 232.57L149.93 232.44L150.07 232.31L150.23 232.18L150.39 232.03L150.56 231.89L150.75 231.73L150.94 231.57L151.15 231.4L151.36 231.23L151.58 231.04L151.81 230.85L152.18 230.55L152.53 230.25L152.87 229.97L153.2 229.69L153.52 229.41L153.82 229.15L154.11 228.89L154.4 228.65L154.68 228.4L154.94 228.17L155.19 227.93L155.43 227.72L155.66 227.5L155.89 227.29L156.09 227.09L156.3 226.89L156.49 226.7L156.67 226.51L156.84 226.33L157.01 226.16L157.16 225.98L157.31 225.82L157.45 225.66L157.57 225.51L157.69 225.36L157.8 225.21L157.9 225.07L158 224.94L158.08 224.8L158.16 224.67L158.23 224.55L158.29 224.43L158.34 224.31L158.39 224.2L158.43 224.09L158.46 223.98L158.49 223.88L158.5 223.77L158.51 223.67L158.51 223.58L158.51 223.41L158.49 223.23L158.47 223.03L158.44 222.82L158.39 222.58L158.34 222.34L158.28 222.08L158.21 221.81L158.13 221.53L158.05 221.23L157.95 220.91L157.84 220.59L157.72 220.24L157.6 219.89L157.47 219.53L157.33 219.14L157.18 218.75L157.02 218.35L156.86 217.93L156.69 217.5L156.51 217.06L156.32 216.6L156.12 216.14L155.91 215.67L155.71 215.18L155.48 214.68L155.25 214.18L155.02 213.66L154.78 213.12L154.52 212.59L154.27 212.03L154.01 211.48L153.73 210.91L153.46 210.33L153.17 209.74L152.88 209.15L152.58 208.54L152.28 207.93L151.96 207.31L151.64 206.68L151.41 206.22L151.18 205.76L150.95 205.31L150.72 204.86L150.49 204.43L150.25 203.99L150.02 203.56L149.8 203.14L149.57 202.72L149.34 202.31L149.11 201.9L148.89 201.5L148.66 201.1L148.43 200.7L148.2 200.31L147.98 199.93L147.75 199.55L147.53 199.18L147.3 198.81L147.07 198.44L146.85 198.08L146.62 197.72L146.39 197.37L146.17 197.02L145.94 196.67L145.72 196.33L145.49 196L145.26 195.66L145.03 195.33L144.8 195.01L144.58 194.68L144.35 194.37L144.12 194.05L143.89 193.74L143.66 193.43L143.43 193.13L143.2 192.83L142.97 192.53L142.74 192.23L142.5 191.94L142.41 191.83L142.33 191.72L142.24 191.61L142.15 191.5L142.07 191.39L141.98 191.29L141.9 191.18L141.81 191.08L141.74 190.97L141.66 190.87L141.58 190.78L141.5 190.67L141.42 190.58L141.35 190.49L141.27 190.39L141.2 190.3L141.12 190.22L141.06 190.13L140.99 190.05L140.93 189.97L140.86 189.89L140.8 189.82L140.74 189.75L140.68 189.68L140.63 189.61L140.58 189.55L140.53 189.49L140.48 189.43L140.44 189.38L140.4 189.33L140.36 189.28L140.32 189.24L140.3 189.21L140.27 189.17L140.24 189.14L140.22 189.11L140.19 189.09L140.18 189.07L140.17 189.06L140.16 189.05L140.14 189.04L140.12 189.03L140.12 189.03L140.12 189.04L140.12 189.04L140.12 189.06L140.12 189.09L140.14 189.12ZM109.85 194.83L109.5 195.51L109.11 196.3L108.7 197.19L108.24 198.16L107.76 199.21L107.26 200.33L106.74 201.52L106.2 202.75L105.65 204.02L105.09 205.33L104.53 206.66L103.97 208L103.42 209.35L102.87 210.7L102.34 212.03L101.82 213.34L101.31 214.61L100.84 215.85L100.39 217.04L99.97 218.16L99.59 219.22L99.24 220.2L98.94 221.1L98.69 221.9L98.48 222.59L98.08 224.02L101.39 227.11L101.58 227.28L101.78 227.46L101.97 227.63L102.16 227.81L102.37 228L102.57 228.18L102.78 228.37L102.98 228.55L103.19 228.74L103.4 228.93L103.61 229.11L103.82 229.3L104.03 229.48L104.24 229.67L104.44 229.85L104.65 230.03L104.85 230.21L105.04 230.38L105.24 230.55L105.43 230.71L105.62 230.88L105.81 231.03L105.98 231.18L106.16 231.34L106.33 231.48L106.48 231.62L106.64 231.75L106.79 231.87L106.92 231.99L107.06 232.09L107.31 232.3L107.54 232.49L107.75 232.67L107.95 232.84L108.13 233L108.29 233.16L108.44 233.3L108.57 233.43L108.69 233.56L108.79 233.69L108.88 233.81L108.94 233.92L109 234.04L109.04 234.15L109.06 234.26L109.08 234.37L109.07 234.48L109.05 234.6L109.02 234.72L108.97 234.84L108.9 234.96L108.83 235.1L108.74 235.24L108.64 235.38L108.52 235.54L108.39 235.7L108.24 235.88L108.08 236.06L107.91 236.26L107.73 236.47L107.69 236.53L107.64 236.58L107.6 236.63L107.56 236.68L107.51 236.73L107.48 236.78L107.44 236.84L107.4 236.88L107.36 236.94L107.33 236.99L107.29 237.03L107.26 237.09L107.23 237.14L107.19 237.19L107.16 237.23L107.13 237.27L107.1 237.32L107.08 237.36L107.06 237.4L107.04 237.45L107.02 237.48L107 237.52L106.98 237.55L106.97 237.59L106.95 237.62L106.95 237.65L106.94 237.68L106.93 237.7L106.92 237.73L106.92 237.75L106.94 237.79L106.97 237.81L107.02 237.8L107.1 237.78L107.18 237.73L107.28 237.66L107.4 237.58L107.53 237.49L107.67 237.37L107.81 237.25L107.96 237.11L108.12 236.96L108.28 236.8L108.44 236.64L108.61 236.47L108.77 236.3L108.94 236.13L109.11 235.95L109.26 235.78L109.42 235.61L109.56 235.44L109.69 235.28L109.82 235.12L109.93 234.98L110.03 234.84L110.11 234.71L110.18 234.6L110.23 234.5L110.27 234.41L110.27 234.35L110.27 234.31L110.24 234.27L110.21 234.22L110.15 234.14L110.09 234.07L110.01 233.97L109.91 233.87L109.8 233.76L109.68 233.63L109.55 233.5L109.4 233.36L109.25 233.21L109.08 233.05L108.9 232.88L108.72 232.7L108.52 232.53L108.31 232.33L108.1 232.14L107.87 231.94L107.64 231.73L107.4 231.52L107.15 231.3L106.9 231.08L106.64 230.85L106.36 230.62L106.09 230.38L105.82 230.14L105.53 229.91L105.24 229.67L104.95 229.42L104.66 229.18L104.37 228.93L104.09 228.69L103.81 228.45L103.53 228.21L103.26 227.98L102.98 227.74L102.73 227.51L102.47 227.28L102.22 227.06L101.98 226.84L101.74 226.62L101.52 226.42L101.29 226.21L101.08 226.01L100.88 225.82L100.69 225.64L100.51 225.46L100.33 225.29L100.17 225.13L100.02 224.98L99.88 224.84L99.76 224.7L99.64 224.58L99.54 224.46L99.46 224.36L99.38 224.26L99.33 224.18L99.28 224.11L99.25 224.06L99.22 223.97L99.19 223.89L99.17 223.81L99.15 223.73L99.14 223.64L99.13 223.54L99.13 223.44L99.13 223.33L99.13 223.21L99.15 223.08L99.17 222.94L99.2 222.79L99.23 222.63L99.28 222.45L99.33 222.26L99.38 222.05L99.45 221.82L99.53 221.59L99.61 221.32L99.7 221.04L99.81 220.73L99.92 220.4L100.05 220.05L100.18 219.68L100.33 219.27L100.49 218.85L100.65 218.39L100.83 217.9L101.03 217.39L101.23 216.84L101.6 215.84L101.96 214.89L102.3 213.99L102.62 213.12L102.93 212.3L103.24 211.51L103.52 210.77L103.79 210.06L104.06 209.37L104.31 208.72L104.55 208.09L104.79 207.49L105.02 206.92L105.25 206.35L105.46 205.81L105.68 205.29L105.89 204.79L106.09 204.3L106.3 203.81L106.5 203.33L106.7 202.86L106.91 202.39L107.11 201.92L107.32 201.45L107.53 200.98L107.75 200.5L107.97 200.01L108.19 199.51L108.43 199.01L108.67 198.49L108.8 198.21L108.93 197.94L109.05 197.67L109.17 197.41L109.29 197.15L109.4 196.89L109.52 196.65L109.62 196.4L109.73 196.17L109.83 195.93L109.93 195.71L110.03 195.5L110.12 195.28L110.21 195.09L110.29 194.89L110.37 194.71L110.44 194.54L110.5 194.37L110.57 194.22L110.63 194.08L110.68 193.94L110.72 193.82L110.76 193.71L110.8 193.61L110.83 193.53L110.85 193.46L110.86 193.4L110.88 193.35L110.88 193.32L110.88 193.31L110.78 193.33L110.63 193.49L110.63 193.49L110.42 193.81L110.16 194.25L109.85 194.83ZM206.9 169.39L206.79 169.62L206.68 169.85L206.56 170.06L206.44 170.26L206.32 170.46L206.19 170.65L206.06 170.83L205.92 171.01L205.78 171.18L205.63 171.34L205.48 171.5L205.32 171.65L205.16 171.8L204.99 171.93L204.81 172.07L204.63 172.2L204.44 172.33L204.25 172.45L204.05 172.58L203.84 172.69L203.62 172.8L203.4 172.91L202.96 173.12L202.49 173.31L201.99 173.51L201.46 173.7L200.9 173.88L200.32 174.06L199.71 174.24L199.08 174.4L198.43 174.57L197.76 174.72L197.08 174.87L196.37 175L195.66 175.13L194.93 175.26L194.2 175.38L193.46 175.48L192.71 175.59L191.95 175.67L191.2 175.76L190.44 175.83L189.68 175.89L188.93 175.93L188.18 175.98L187.44 176L186.71 176.02L185.98 176.02L185.51 176.03L185.07 176.03L184.66 176.04L184.28 176.06L183.93 176.07L183.6 176.1L183.31 176.13L183.04 176.17L182.8 176.22L182.57 176.28L182.38 176.34L182.2 176.42L182.04 176.51L181.9 176.61L181.78 176.72L181.68 176.84L181.59 176.99L181.52 177.15L181.45 177.32L181.4 177.5L181.36 177.71L181.34 177.93L181.31 178.17L181.3 178.43L181.29 178.71L181.29 179.01L181.3 179.42L181.31 179.83L181.34 180.22L181.38 180.61L181.43 181L181.49 181.37L181.57 181.74L181.65 182.11L181.75 182.48L181.85 182.83L181.97 183.19L182.11 183.54L182.25 183.88L182.4 184.22L182.57 184.56L182.75 184.9L182.95 185.24L183.16 185.57L183.38 185.9L183.62 186.24L183.86 186.57L184.13 186.9L184.4 187.23L184.69 187.56L184.99 187.89L185.31 188.22L185.92 188.81L186.54 189.37L187.18 189.89L187.85 190.36L188.53 190.82L189.23 191.23L189.94 191.6L190.67 191.95L191.41 192.25L192.17 192.52L192.94 192.75L193.71 192.95L194.49 193.11L195.29 193.23L196.09 193.31L196.9 193.36L197.7 193.38L198.52 193.35L199.33 193.28L200.15 193.18L200.97 193.04L201.78 192.86L202.59 192.64L203.41 192.38L204.21 192.09L205.01 191.75L205.67 191.44L206.31 191.1L206.92 190.74L207.51 190.36L208.08 189.95L208.62 189.53L209.13 189.09L209.63 188.62L210.09 188.13L210.53 187.63L210.94 187.11L211.33 186.57L211.68 186.01L212.01 185.44L212.32 184.85L212.59 184.25L212.83 183.63L213.05 182.99L213.24 182.35L213.4 181.68L213.52 181.01L213.62 180.33L213.68 179.64L213.71 178.93L213.72 178.21L213.68 177.49L213.66 177.11L213.63 176.74L213.6 176.39L213.56 176.05L213.53 175.72L213.48 175.41L213.43 175.1L213.37 174.8L213.32 174.5L213.25 174.22L213.18 173.94L213.1 173.67L213.01 173.4L212.93 173.14L212.83 172.88L212.73 172.63L212.61 172.38L212.5 172.13L212.37 171.88L212.24 171.62L212.09 171.38L211.94 171.12L211.78 170.87L211.61 170.61L211.43 170.35L211.24 170.08L211.16 169.98L211.08 169.87L211 169.76L210.91 169.65L210.83 169.54L210.73 169.43L210.64 169.33L210.55 169.22L210.46 169.11L210.36 169L210.26 168.89L210.17 168.79L210.08 168.69L209.98 168.59L209.89 168.49L209.8 168.39L209.7 168.31L209.62 168.22L209.52 168.13L209.44 168.05L209.35 167.98L209.27 167.91L209.18 167.84L209.11 167.78L209.03 167.72L208.96 167.67L207.89 166.88L207.32 168.37L207.22 168.64L207.22 168.64L207.12 168.9L207.01 169.15L206.9 169.39ZM225.86 167.37L225.76 167.46L225.65 167.58L225.53 167.7L225.4 167.84L225.26 167.99L225.13 168.15L224.98 168.32L224.83 168.5L224.68 168.68L224.53 168.87L224.37 169.07L224.21 169.27L224.05 169.48L223.9 169.68L223.74 169.89L223.59 170.1L223.44 170.3L223.3 170.51L223.16 170.71L223.02 170.91L222.9 171.1L222.71 171.41L222.53 171.71L222.36 172L222.21 172.29L222.06 172.58L221.92 172.86L221.79 173.14L221.67 173.42L221.56 173.7L221.45 173.98L221.37 174.26L221.28 174.54L221.2 174.83L221.14 175.11L221.07 175.4L221.02 175.7L220.98 176L220.94 176.3L220.91 176.61L220.89 176.93L220.87 177.26L220.86 177.6L220.86 177.94L220.86 178.3L220.87 178.66L220.89 179.04L220.9 179.33L220.91 179.6L220.93 179.85L220.94 180.09L220.96 180.31L220.98 180.53L221 180.74L221.02 180.93L221.05 181.12L221.08 181.31L221.11 181.48L221.14 181.65L221.18 181.82L221.22 181.98L221.27 182.15L221.32 182.31L221.37 182.47L221.44 182.63L221.5 182.8L221.58 182.97L221.65 183.14L221.74 183.32L221.82 183.5L221.92 183.69L222.02 183.89L222.13 184.1L222.56 184.87L223.04 185.62L223.55 186.33L224.11 187.01L224.7 187.65L225.34 188.25L226 188.83L226.69 189.36L227.42 189.86L228.17 190.32L228.94 190.74L229.74 191.12L230.56 191.46L231.41 191.76L232.26 192.01L233.14 192.23L234.03 192.4L234.93 192.53L235.84 192.61L236.75 192.64L237.67 192.63L238.6 192.57L239.53 192.47L240.45 192.31L241.37 192.1L242.29 191.84L243.04 191.6L243.77 191.33L244.48 191.04L245.15 190.73L245.81 190.39L246.44 190.04L247.04 189.66L247.62 189.27L248.18 188.85L248.7 188.42L249.2 187.97L249.68 187.5L250.12 187.01L250.54 186.51L250.93 185.98L251.29 185.45L251.62 184.89L251.92 184.32L252.2 183.73L252.44 183.14L252.66 182.52L252.84 181.9L252.99 181.26L253.1 180.61L253.19 179.94L253.25 179.27L253.26 179.04L253.28 178.82L253.28 178.62L253.29 178.42L253.3 178.23L253.31 178.06L253.31 177.9L253.31 177.74L253.31 177.6L253.3 177.47L253.29 177.34L253.28 177.22L253.28 177.11L253.26 177.01L253.25 176.91L253.23 176.83L253.21 176.75L253.19 176.68L253.17 176.61L253.14 176.55L253.11 176.5L253.08 176.45L253.05 176.41L253.02 176.37L252.98 176.34L252.95 176.31L252.91 176.3L252.87 176.28L252.82 176.26L252.76 176.24L252.69 176.22L252.61 176.21L252.54 176.19L252.45 176.18L252.36 176.16L252.26 176.15L252.15 176.13L252.05 176.12L251.93 176.11L251.81 176.1L251.69 176.09L251.56 176.08L251.43 176.07L251.3 176.06L251.16 176.05L251.02 176.04L250.87 176.04L250.73 176.04L250.58 176.03L250.43 176.03L250.28 176.03L250.13 176.02L249.35 176.02L248.55 176L247.74 175.97L246.92 175.93L246.09 175.87L245.25 175.8L244.41 175.73L243.57 175.64L242.73 175.54L241.89 175.44L241.06 175.32L240.24 175.2L239.42 175.07L238.62 174.93L237.84 174.78L237.07 174.63L236.33 174.46L235.61 174.3L234.91 174.13L234.25 173.96L233.61 173.77L233.01 173.59L232.44 173.4L231.91 173.21L231.42 173.01L230.97 172.82L230.71 172.69L230.45 172.57L230.2 172.44L229.97 172.31L229.74 172.17L229.53 172.03L229.32 171.9L229.12 171.76L228.93 171.61L228.75 171.47L228.58 171.32L228.41 171.16L228.25 171L228.1 170.84L227.96 170.67L227.83 170.5L227.7 170.32L227.58 170.14L227.46 169.95L227.35 169.76L227.25 169.56L227.15 169.35L227.06 169.14L226.98 168.92L226.89 168.7L226.82 168.47L226.79 168.38L226.76 168.3L226.73 168.22L226.71 168.14L226.68 168.06L226.65 167.98L226.62 167.92L226.6 167.84L226.57 167.77L226.55 167.71L226.52 167.64L226.5 167.58L226.47 167.53L226.44 167.47L226.42 167.42L226.39 167.38L226.37 167.33L226.35 167.29L226.33 167.25L226.31 167.22L226.29 167.2L226.27 167.18L226.26 167.16L226.24 167.14L226.23 167.14L226.21 167.14L226.17 167.14L226.11 167.17L226.11 167.17L226.04 167.22L225.96 167.29L225.86 167.37ZM105.41 108.8L104.71 109.05L104.01 109.34L103.34 109.68L102.68 110.06L102.04 110.48L101.42 110.96L100.83 111.47L100.26 112.02L99.8 112.52L99.38 113.06L98.99 113.6L98.64 114.17L98.31 114.75L98.02 115.35L97.77 115.96L97.56 116.58L97.37 117.21L97.22 117.84L97.12 118.47L97.04 119.11L97.02 119.74L97.02 120.37L97.07 120.99L97.14 121.6L97.27 122.2L97.44 122.79L97.64 123.36L97.75 123.62L97.85 123.86L97.94 124.06L98.04 124.24L98.15 124.39L98.25 124.52L98.37 124.63L98.51 124.71L98.66 124.78L98.83 124.82L99.02 124.84L99.25 124.84L99.51 124.82L99.81 124.78L100.15 124.74L100.53 124.67L100.95 124.58L101.44 124.49L101.97 124.38L102.56 124.26L103.21 124.16L103.9 124.08L104.63 124L105.4 123.94L106.2 123.89L107.02 123.85L107.85 123.83L108.71 123.83L109.57 123.83L110.43 123.84L111.3 123.87L112.15 123.91L112.98 123.96L113.79 124.02L114.58 124.11L115.34 124.19L116.06 124.3L116.74 124.41L117.06 124.47L117.36 124.52L117.65 124.57L117.93 124.61L118.2 124.65L118.45 124.69L118.69 124.71L118.91 124.74L119.12 124.76L119.32 124.78L119.5 124.78L119.66 124.79L119.81 124.79L119.94 124.78L120.05 124.78L120.15 124.76L120.22 124.75L120.28 124.72L120.33 124.69L120.35 124.66L120.38 124.62L120.42 124.56L120.46 124.48L120.5 124.4L120.54 124.3L120.59 124.2L120.64 124.09L120.69 123.96L120.74 123.83L120.79 123.69L120.84 123.54L120.89 123.39L120.95 123.22L121 123.07L121.05 122.89L121.1 122.72L121.15 122.55L121.2 122.37L121.29 122.01L121.37 121.64L121.43 121.28L121.49 120.92L121.53 120.58L121.56 120.23L121.56 119.88L121.56 119.54L121.55 119.19L121.51 118.84L121.47 118.49L121.41 118.13L121.34 117.77L121.25 117.41L121.15 117.03L121.03 116.64L120.9 116.24L120.75 115.84L120.59 115.42L120.42 115.03L120.22 114.62L119.98 114.22L119.72 113.82L119.43 113.41L119.12 113.01L118.78 112.62L118.42 112.23L118.06 111.85L117.67 111.48L117.27 111.13L116.87 110.8L116.46 110.48L116.04 110.18L115.62 109.91L115.2 109.66L114.78 109.44L114.36 109.26L113.96 109.1L113.15 108.83L112.34 108.62L111.53 108.46L110.73 108.33L109.94 108.27L109.16 108.24L108.39 108.26L107.63 108.33L107.63 108.33L106.87 108.44L106.14 108.59L105.41 108.8ZM132.38 113.07L131.95 113.13L131.39 113.24L130.88 113.37L130.41 113.52L129.98 113.69L129.6 113.89L129.26 114.12L128.96 114.38L128.69 114.67L128.47 115.01L128.27 115.38L128.11 115.79L127.97 116.24L127.87 116.75L127.79 117.3L127.74 117.91L127.71 118.58L127.69 119.3L127.69 119.91L127.7 120.45L127.72 120.92L127.76 121.33L127.82 121.68L127.92 121.98L128.05 122.23L128.23 122.44L128.46 122.59L128.76 122.72L129.11 122.82L129.54 122.89L130.05 122.93L130.64 122.96L131.32 122.98L132.1 122.98L132.99 122.98L133.78 122.98L134.59 123L135.41 123.03L136.23 123.07L137.07 123.11L137.9 123.18L138.75 123.24L139.58 123.32L140.41 123.4L141.23 123.5L142.05 123.6L142.84 123.71L143.63 123.83L144.39 123.96L145.14 124.09L145.86 124.23L146.55 124.38L147.31 124.54L147.99 124.67L148.61 124.76L149.15 124.81L149.64 124.83L150.05 124.8L150.43 124.74L150.74 124.61L151.01 124.45L151.24 124.22L151.44 123.95L151.59 123.61L151.73 123.22L151.83 122.76L151.92 122.24L151.99 121.64L152.05 120.98L152.25 118.63L150.27 117.29L149.84 117L149.39 116.72L148.93 116.45L148.47 116.18L148 115.92L147.53 115.67L147.04 115.43L146.56 115.2L146.07 114.97L145.58 114.76L145.1 114.56L144.61 114.37L144.13 114.19L143.64 114.03L143.17 113.87L142.7 113.73L142.23 113.61L141.79 113.51L141.27 113.41L140.72 113.32L140.12 113.24L139.47 113.17L138.8 113.1L138.11 113.05L137.41 113.01L136.72 112.97L136.02 112.95L135.33 112.94L134.66 112.94L134.03 112.95L134.03 112.95L133.43 112.98L132.88 113.01L132.38 113.07Z" id="ebCbxFVlB"></path></defs><g><g><g><use xlink:href="#ebCbxFVlB" opacity="1" fill="#39b54a" fill-opacity="1"></use><g><use xlink:href="#ebCbxFVlB" opacity="1" fill-opacity="0" stroke="#000000" stroke-width="1" stroke-opacity="0"></use></g></g></g></g></svg>